<svg width="87" height="104" viewBox="0 0 87 104" fill="none" xmlns="http://www.w3.org/2000/svg">
<g id="Group 5">
<path id="Vector" d="M63.3996 22.6039V6.99021C63.3996 3.13859 60.4898 0 56.9133 0H6.4863C2.90979 0 0 3.13859 0 6.99021V97.0037C0 100.861 2.90979 103.994 6.4863 103.994H56.919C60.4955 103.994 63.4053 100.861 63.4053 97.0037V81.9994H58.484V94.2369C58.484 95.151 57.7947 95.8945 56.9472 95.8945H6.45805C5.61053 95.8945 4.92122 95.151 4.92122 94.2369V9.75095C4.92122 8.8368 5.61053 8.09329 6.45805 8.09329H56.9416C57.7891 8.09329 58.4784 8.8368 58.4784 9.75095V22.6039H63.3996ZM27.1939 98.5456H36.2114C36.9685 98.5456 37.5844 99.2099 37.5844 100.026C37.5844 100.843 36.9685 101.507 36.2114 101.507H27.1939C26.4367 101.507 25.8209 100.843 25.8209 100.026C25.8209 99.2099 26.4367 98.5456 27.1939 98.5456ZM39.1946 5.45444H24.205C23.4479 5.45444 22.832 4.79016 22.832 3.97351C22.832 3.15687 23.4479 2.49259 24.205 2.49259H39.1946C39.9518 2.49259 40.5676 3.15687 40.5676 3.97351C40.5676 4.79016 39.9518 5.45444 39.1946 5.45444Z" fill="black"/>
<path id="Vector_2" d="M38.471 34.7194C37.8438 35.3959 37.4992 36.2918 37.4992 37.2486C37.4992 38.2054 37.8438 39.1013 38.471 39.7778L40.7762 42.2642C41.0361 42.5446 41.1096 42.9346 40.9683 43.3003C40.8271 43.672 40.5219 43.8914 40.149 43.8914H36.8946C35.064 43.8914 33.578 45.5003 33.578 47.4688V57.1344C33.578 59.109 35.0696 60.7118 36.8946 60.7118H40.149C40.5219 60.7118 40.8271 60.9312 40.9683 61.303C41.1096 61.6747 41.0418 62.0587 40.7762 62.339L38.4766 64.8255C37.1827 66.2211 37.1827 68.4882 38.4766 69.8838L44.8104 76.7156C45.4375 77.3921 46.2681 77.7638 47.1551 77.7638C48.0422 77.7638 48.8728 77.3921 49.4999 76.7156L51.8052 74.2352C51.9803 74.0463 52.1894 73.9487 52.421 73.9487C52.5397 73.9487 52.6583 73.9731 52.7713 74.028C53.116 74.1803 53.3194 74.5094 53.3194 74.9117V78.422C53.3194 80.2564 54.6472 81.8226 56.3422 81.9872L56.8394 82.0359V94.1271H6.56494V9.86671H56.8337V22.5734L56.3365 22.6222C54.6415 22.7867 53.3137 24.3469 53.3137 26.1874V29.6977C53.3137 30.0999 53.1103 30.429 52.7657 30.5814C52.6527 30.6362 52.534 30.6606 52.4154 30.6606C52.1837 30.6606 51.9747 30.5631 51.7995 30.3742L49.4943 27.8877C48.8671 27.2112 48.0309 26.8395 47.1495 26.8395C46.2681 26.8395 45.4319 27.2112 44.8047 27.8877L38.471 34.7194Z" fill="black"/>
<path id="Vector_3" d="M72.2762 52.3078C72.2762 58.9446 67.2645 64.3502 61.1116 64.3502C54.9586 64.3502 49.947 58.9446 49.947 52.3078C49.947 45.6711 54.9586 40.2654 61.1116 40.2654C67.2645 40.2654 72.2762 45.6711 72.2762 52.3078Z" fill="black"/>
<path id="Vector_4" d="M85.3272 45.6649H82.0727C81.0444 45.6649 80.1291 45.0067 79.7336 43.9829C79.3437 42.959 79.5584 41.7889 80.2816 41.0089L82.5869 38.5285C82.9033 38.1872 83.0784 37.7301 83.0784 37.2486C83.0784 36.7672 82.9033 36.3162 82.5869 35.9749L76.2531 29.1432C75.9367 28.8019 75.513 28.613 75.0723 28.613C74.6316 28.613 74.2022 28.8019 73.8857 29.1432L71.5862 31.6297C71.1059 32.1416 70.4731 32.4341 69.8007 32.4341C69.4674 32.4341 69.1453 32.361 68.8289 32.2269C67.8797 31.8003 67.2695 30.813 67.2695 29.7038V26.1935C67.2695 25.194 66.518 24.3896 65.5971 24.3896H56.636C55.7151 24.3896 54.9636 25.194 54.9636 26.1935V29.7038C54.9636 30.813 54.3534 31.8003 53.4042 32.2269C53.0934 32.3671 52.7657 32.4341 52.4324 32.4341C51.76 32.4341 51.1272 32.1477 50.647 31.6297L48.3474 29.1432C48.031 28.8019 47.6072 28.613 47.1608 28.613C46.7145 28.613 46.2964 28.8019 45.98 29.1432L39.6462 35.9749C39.3298 36.3162 39.1547 36.7733 39.1547 37.2486C39.1547 37.724 39.3298 38.1811 39.6462 38.5285L41.9515 41.0089C42.6747 41.795 42.8894 42.959 42.4995 43.9829C42.104 45.0067 41.1887 45.6649 40.1604 45.6649H36.9059C35.9793 45.6649 35.2335 46.4755 35.2335 47.4689V57.1345C35.2335 58.1279 35.9793 58.9384 36.9059 58.9384H40.1604C41.1887 58.9384 42.104 59.5966 42.4995 60.6205C42.8894 61.6443 42.6747 62.8144 41.9515 63.5945L39.6462 66.0749C39.3298 66.4162 39.1547 66.8733 39.1547 67.3547C39.1547 67.8362 39.3298 68.2871 39.6462 68.6284L45.98 75.4602C46.2964 75.8015 46.7145 75.9904 47.1608 75.9904C47.6072 75.9904 48.0253 75.8015 48.3474 75.4602L50.647 72.9737C51.1272 72.4618 51.76 72.1753 52.4324 72.1753C52.7657 72.1753 53.0878 72.2424 53.4042 72.3825C54.3534 72.8092 54.9636 73.7964 54.9636 74.9056V78.4159C54.9636 79.4154 55.7151 80.2199 56.636 80.2199H65.5971C66.518 80.2199 67.2695 79.4154 67.2695 78.4159V74.9056C67.2695 73.7964 67.8797 72.8092 68.8289 72.3825C69.1397 72.2424 69.4674 72.1753 69.8007 72.1753C70.4731 72.1753 71.1059 72.4618 71.5862 72.9737L73.8857 75.4602C74.2022 75.8015 74.6203 75.9904 75.0723 75.9904C75.5243 75.9904 75.9367 75.8015 76.2531 75.4602L82.5869 68.6284C82.9033 68.2871 83.0784 67.8362 83.0784 67.3547C83.0784 66.8733 82.9033 66.4162 82.5869 66.0749L80.2816 63.5945C79.5584 62.8083 79.3437 61.6443 79.7336 60.6205C80.1291 59.5966 81.0444 58.9384 82.0727 58.9384H85.3272C86.2538 58.9384 86.9996 58.1279 86.9996 57.1345V47.4689C86.9996 46.4755 86.2538 45.6649 85.3272 45.6649ZM61.1053 67.306C53.4381 67.306 47.2004 60.5778 47.2004 52.3078C47.2004 44.0378 53.4381 37.3035 61.1053 37.3035C68.7724 37.3035 75.0158 44.0317 75.0158 52.3078C75.0158 60.5839 68.7781 67.306 61.1053 67.306Z" fill="black"/>
</g>
</svg>
