<svg width="43" height="33" viewBox="0 0 43 33" fill="none" xmlns="http://www.w3.org/2000/svg">
<g id="Group 9">
<path id="Vector" d="M42.9842 4.25018C42.9683 4.17546 42.9321 4.10979 42.8755 4.05771C42.8189 4.00563 42.7509 3.97167 42.6762 3.96035C42.6581 3.95808 42.6423 3.95582 42.6241 3.95582C42.6174 3.95582 42.6083 3.95582 42.6015 3.95582C41.963 3.99431 41.3221 4.01469 40.6994 4.01469C35.4937 4.01469 30.8382 2.64929 27.2334 0.0679305C27.17 0.0226435 27.0952 0 27.0182 0C26.9413 0 26.8665 0.0226435 26.8054 0.0679305C23.2028 2.64929 18.5451 4.01243 13.3393 4.01469C12.7166 4.01469 12.0758 3.99431 11.4373 3.95582C11.4305 3.95582 11.4237 3.95582 11.4146 3.95582C11.3965 3.95582 11.3806 3.95582 11.3625 3.96035C11.2878 3.9694 11.2176 4.00337 11.1633 4.05545C11.127 4.08941 11.0976 4.13244 11.0772 4.17772C11.0568 4.22528 11.0478 4.27283 11.0478 4.32491C11.0478 4.58304 11.0478 4.83665 11.0501 5.08799V5.23744C11.0682 7.44065 11.1497 9.41064 11.2991 11.2561L11.3059 11.3376C11.324 11.5369 11.3399 11.7339 11.358 11.9286L11.3648 12.0033C11.3806 12.155 11.3942 12.3067 11.4101 12.4517V12.4562L11.4124 12.4743C11.4735 13.0698 11.5392 13.645 11.6161 14.2065C11.8969 14.2405 12.1619 14.3333 12.3951 14.4737C12.9725 14.8202 13.362 15.4497 13.3665 16.1652C13.3801 16.4845 13.2895 17.4559 13.1695 18.4499C13.1038 18.9888 13.0314 19.5345 12.9612 19.9851L12.9204 20.2478C12.9204 20.2478 12.9249 20.2637 12.9272 20.2705H20.0758C21.1762 20.2705 22.0729 21.0743 22.0729 22.0616C22.0729 22.374 21.9778 22.6843 21.7989 22.9582L21.6495 23.1869L21.8918 23.3115C22.4963 23.6217 22.87 24.2331 22.87 24.9056C22.87 25.5781 22.4941 26.1895 21.8918 26.4997L21.6495 26.6242L21.7989 26.8529C21.9778 27.1269 22.0729 27.4371 22.0729 27.7519C22.0729 28.2727 21.8261 28.7504 21.4049 29.0833C21.2713 29.1897 21.1196 29.2826 20.9543 29.355L20.6917 29.4728L20.8026 29.6426C21.4185 29.8894 22.0684 30.0932 22.7477 30.254L22.7635 30.2585C22.9085 30.2925 23.0534 30.3242 23.2006 30.3536L23.2526 30.3649C23.4089 30.3966 23.5651 30.4261 23.7236 30.4532L23.7485 30.4578C24.5909 30.6004 25.4898 30.6842 26.4182 30.7091H26.4499C26.6401 30.7159 26.8303 30.7182 27.0205 30.7182C27.2107 30.7182 27.4032 30.7159 27.5911 30.7114H27.6251C28.5557 30.6865 29.4547 30.6004 30.3038 30.4555H30.3197C30.4804 30.4261 30.6367 30.3966 30.7929 30.3649L30.845 30.3536C30.9922 30.3219 31.1371 30.2902 31.282 30.2585L31.3001 30.254C35.0431 29.3663 37.7852 27.2243 39.6805 23.7032C41.1885 20.9022 42.1532 17.2294 42.6332 12.4698V12.4517C42.6513 12.3022 42.6649 12.1528 42.6808 12.0011L42.6875 11.9309C42.7057 11.7339 42.7215 11.5369 42.7396 11.3353L42.7464 11.2561C42.8959 9.41064 42.9774 7.44292 42.9955 5.23744V5.09026C42.9978 4.83891 43 4.58304 43 4.32491C43 4.3 42.9978 4.27509 42.9932 4.25018H42.9842ZM20.1482 17.0392C19.915 16.7924 19.9286 16.4029 20.1754 16.172C20.4245 15.9388 20.8117 15.9523 21.0449 16.1992L25.6913 21.1694L34.9616 11.2561C35.1948 11.0093 35.582 10.9957 35.8311 11.2289C36.0802 11.4599 36.0915 11.8493 35.8605 12.0962L26.1419 22.4895C26.0265 22.6141 25.8634 22.6843 25.6936 22.6843C25.5238 22.6843 25.3607 22.6141 25.2453 22.4895L20.1505 17.0392H20.1482Z" fill="black"/>
<path id="Vector_2" d="M20.7235 28.6531C20.7643 28.6327 20.8028 28.61 20.8413 28.5851C20.8526 28.5783 20.8617 28.5715 20.873 28.5648C20.8888 28.5557 20.9047 28.5444 20.9183 28.5308C20.9273 28.524 20.9387 28.5149 20.9455 28.5081C20.9862 28.4764 21.0224 28.4425 21.0564 28.4063C21.0745 28.3859 21.0926 28.3678 21.1085 28.3474C21.1289 28.3225 21.1492 28.2976 21.1674 28.2704C21.1945 28.2296 21.2217 28.1866 21.2421 28.1436C21.2647 28.096 21.2828 28.0485 21.2987 27.9987C21.3078 27.967 21.3145 27.933 21.3213 27.899C21.3259 27.8787 21.3281 27.8605 21.3304 27.8379V27.8311C21.3327 27.8062 21.3349 27.779 21.3349 27.7519C21.3349 27.1699 20.7688 26.6989 20.0759 26.6989H17.5218C17.2749 26.4657 17.0395 26.2212 16.8108 25.9608H21.0813C21.6633 25.9608 22.1342 25.4875 22.1342 24.9056C22.1342 24.3236 21.6633 23.8526 21.0813 23.8526H16.6409C16.4371 23.8526 16.2718 23.6873 16.2718 23.4836C16.2718 23.2798 16.4371 23.1145 16.6409 23.1145H20.0759C20.7711 23.1145 21.3349 22.6412 21.3349 22.0615C21.3349 21.4819 20.7688 21.0086 20.0759 21.0086H13.9622H13.1765H12.47C12.359 21.0086 12.2526 20.9588 12.1847 20.8728C12.1145 20.7845 12.0873 20.6735 12.11 20.5625C12.1145 20.5467 12.1168 20.5331 12.119 20.5173C12.1281 20.4765 12.1371 20.4289 12.1439 20.3814C12.1598 20.3044 12.1734 20.2184 12.1892 20.1278C12.1983 20.0667 12.2096 20.0033 12.2209 19.9353C12.2322 19.8674 12.2436 19.7972 12.2549 19.7247C12.2617 19.6772 12.2685 19.6274 12.2753 19.5776C12.2979 19.4236 12.3205 19.2651 12.3432 19.0998C12.35 19.05 12.3545 19.0024 12.3636 18.9503C12.3772 18.8484 12.3885 18.7488 12.4021 18.6469C12.4066 18.6084 12.4111 18.5699 12.4179 18.5337C12.4179 18.5224 12.4224 18.5088 12.4224 18.4952C12.4224 18.4793 12.427 18.4658 12.427 18.4499C12.4338 18.4046 12.4383 18.3593 12.4451 18.3163C12.4496 18.2778 12.4541 18.2393 12.4564 18.2031C12.4632 18.1533 12.4677 18.1035 12.4745 18.0536C12.4745 18.0469 12.4745 18.0446 12.4745 18.0401C12.4813 17.9857 12.4858 17.9314 12.4926 17.877C12.4972 17.8476 12.4994 17.8159 12.5017 17.7887C12.5062 17.7389 12.513 17.6891 12.5175 17.6415C12.5289 17.5374 12.5402 17.4377 12.5492 17.3404C12.5515 17.3155 12.5538 17.2928 12.556 17.2702C12.556 17.2634 12.556 17.2589 12.556 17.2521C12.5583 17.2249 12.5606 17.1977 12.5628 17.1728C12.5628 17.1638 12.5651 17.1547 12.5651 17.1479C12.5674 17.123 12.5696 17.0981 12.5719 17.0732C12.5742 17.0483 12.5764 17.0256 12.5787 17.003C12.5809 16.9826 12.5832 16.9622 12.5832 16.9419C12.5991 16.7698 12.6104 16.618 12.6172 16.4958C12.6194 16.4709 12.6217 16.446 12.6217 16.4211C12.6262 16.3282 12.6262 16.258 12.624 16.215C12.624 16.2059 12.624 16.1924 12.624 16.1833C12.624 16.1471 12.624 16.1131 12.6194 16.0769C12.6172 16.0474 12.6149 16.018 12.6104 15.9908C12.6104 15.9795 12.6059 15.9682 12.6036 15.9569C12.5945 15.8957 12.5787 15.8368 12.5583 15.7802C12.5583 15.7757 12.556 15.7734 12.5538 15.7712C12.547 15.7508 12.5379 15.7304 12.5311 15.71C12.5311 15.7055 12.5266 15.701 12.5243 15.6942C12.5198 15.6851 12.5175 15.6738 12.5108 15.6648C12.5017 15.6399 12.4881 15.6149 12.4745 15.59C12.4745 15.5878 12.4723 15.5855 12.47 15.5832C12.4541 15.5561 12.4406 15.5312 12.4224 15.504C12.4066 15.4813 12.393 15.4587 12.3772 15.4383C12.3704 15.4293 12.3636 15.4202 12.3568 15.4134C12.3387 15.3908 12.3206 15.3681 12.3024 15.3477C12.2798 15.3228 12.2571 15.2979 12.2345 15.2753C12.2119 15.2549 12.1892 15.2345 12.1643 15.2119C12.1643 15.2119 12.162 15.2119 12.1598 15.2096C12.1349 15.1892 12.1077 15.1689 12.0805 15.1485C12.076 15.144 12.0715 15.1417 12.0692 15.1394C12.0466 15.1236 12.0217 15.1077 11.9967 15.0941C11.9401 15.0602 11.8813 15.0307 11.8179 15.0081C11.8179 15.0081 11.8156 15.0081 11.8133 15.0081C11.7816 14.9968 11.7499 14.9855 11.7182 14.9764C11.6911 14.9673 11.6616 14.9605 11.6345 14.9538C11.605 14.947 11.5756 14.9424 11.5461 14.9379C11.5167 14.9334 11.4873 14.9288 11.4556 14.9288C11.4261 14.9266 11.3944 14.9243 11.365 14.9243C11.0933 14.9243 10.8533 15.1055 10.7808 15.3659L10.14 17.6687C9.78674 18.9299 9.02366 20.0644 7.98432 20.8637L7.75562 21.0426C7.01292 21.6155 6.13208 22.014 5.20823 22.1974L5.01123 22.2359V30.7612L5.16068 30.8246C6.40381 31.3612 7.76921 31.642 9.11423 31.642H19.0864C19.7952 31.642 20.3726 31.171 20.3726 30.5891C20.3726 30.0071 19.7952 29.5362 19.0864 29.5362H16.6183C16.4145 29.5362 16.2492 29.3709 16.2492 29.1671C16.2492 28.9633 16.4145 28.798 16.6183 28.798H20.0737C20.1552 28.798 20.2367 28.7912 20.316 28.7776C20.3363 28.7753 20.3545 28.7708 20.3748 28.7663C20.4337 28.755 20.4881 28.7414 20.5424 28.721C20.5424 28.721 20.5469 28.721 20.5469 28.7187C20.5673 28.7119 20.5877 28.7051 20.6058 28.6984C20.6171 28.6938 20.6284 28.6893 20.642 28.6825C20.6624 28.6734 20.6828 28.6644 20.7054 28.6553C20.7122 28.6508 20.7213 28.6485 20.7281 28.644L20.7235 28.6531ZM11.7545 30.3355C11.3242 30.3581 10.8895 30.3762 10.4593 30.3762C9.25236 30.3762 8.08169 30.2381 7.15331 29.6743C6.91328 29.5294 6.8363 29.2146 6.98348 28.9746C7.1284 28.7346 7.44314 28.6576 7.68316 28.8048C8.69306 29.4184 10.2238 29.398 11.7024 29.321C11.9877 29.3052 12.2232 29.5226 12.2368 29.8034C12.2504 30.0841 12.0352 30.3242 11.7545 30.3377V30.3355Z" fill="black"/>
<path id="Vector_3" d="M3.74976 20.6305H0.523065C0.233228 20.6305 0 20.866 0 21.1536V31.9205C0 32.2081 0.235492 32.4436 0.523065 32.4436H3.74976C4.03733 32.4436 4.27283 32.2081 4.27283 31.9205V21.1536C4.27283 20.8637 4.03733 20.6305 3.74976 20.6305Z" fill="black"/>
</g>
</svg>
