<svg width="73" height="99" viewBox="0 0 73 99" fill="none" xmlns="http://www.w3.org/2000/svg">
<g id="_x2018_&#195;&#131;&#194;&#171;&#195;&#131;&#194;&#174;&#195;&#131;&#194;&#169;_x5F_1" clip-path="url(#clip0_99_303)">
<path id="Vector" d="M69.331 94.3456C66.5862 97.2796 62.5109 98.7661 57.2163 98.7661C56.5983 98.7661 54.4103 98.755 52.0052 98.7438C46.95 98.716 42.3234 96.1494 39.6288 91.8681L25.4152 69.3033C23.8674 66.8425 24.5912 63.5578 27.0242 61.971C27.8927 61.4087 28.8948 61.1081 29.9304 61.1081C31.7509 61.1081 33.4267 62.0156 34.4177 63.5411L39.9962 72.1149V44.9514C39.9962 42.3515 42.1119 40.2303 44.7174 40.2303C47.323 40.2303 49.4386 42.3459 49.4386 44.9514V58.2409L50.2459 57.7843C50.9529 57.3779 51.7602 57.1664 52.5675 57.1664C54.9114 57.1664 56.9212 58.9201 57.2385 61.2473L57.3499 62.049L58.0458 61.6426C58.7696 61.2194 59.588 60.9967 60.4175 60.9967C62.7614 60.9967 64.7713 62.7505 65.0886 65.0777L65.2 65.8794L65.8959 65.4729C66.6197 65.0498 67.4381 64.8271 68.2676 64.8271C70.8732 64.8271 72.9943 66.9427 72.9943 69.5483V84.1572C73.0278 84.7696 73.1892 90.2368 69.3366 94.3512L69.331 94.3456Z" fill="black"/>
<path id="Vector_2" d="M33.8218 7.51054C33.8218 11.6527 30.4535 15.021 26.3114 15.021C22.1692 15.021 18.8009 11.6527 18.8009 7.51054C18.8009 3.36838 22.1636 9.34601e-05 26.3058 9.34601e-05C30.4479 9.34601e-05 33.8162 3.36838 33.8162 7.51054H33.8218Z" fill="black"/>
<path id="Vector_3" d="M52.6174 7.51054C52.6174 11.6527 49.2436 15.021 45.107 15.021C40.9704 15.021 37.5909 11.6527 37.5909 7.51054C37.5909 3.36838 40.9592 9.34601e-05 45.1014 9.34601e-05C49.2436 9.34601e-05 52.6118 3.36838 52.6118 7.51054H52.6174Z" fill="black"/>
<path id="Vector_4" d="M15.0265 7.51045C15.0265 11.6526 11.6526 15.0209 7.51045 15.0209C3.36829 15.0209 0 11.6582 0 7.51045C0 3.36272 3.37386 0 7.51045 0C11.647 0 15.0265 3.36829 15.0265 7.51045Z" fill="black"/>
<path id="Vector_5" d="M15.0265 26.373C15.0265 30.5152 11.6526 33.8835 7.51045 33.8835C3.36829 33.8835 0 30.5152 0 26.373C0 22.2309 3.37386 18.857 7.51045 18.857C11.647 18.857 15.0265 22.2309 15.0265 26.373Z" fill="black"/>
<path id="Vector_6" d="M33.8218 26.373C33.8218 30.5152 30.4535 33.8835 26.3114 33.8835C22.1692 33.8835 18.8009 30.5096 18.8009 26.373C18.8009 22.2364 22.1692 18.857 26.3114 18.857C30.4535 18.857 33.8218 22.2309 33.8218 26.373Z" fill="black"/>
<path id="Vector_7" d="M15.0265 45.2298C15.0265 49.372 11.6526 52.7458 7.51045 52.7458C3.36829 52.7458 0 49.3775 0 45.2298C0 41.0821 3.37386 37.7194 7.51045 37.7194C11.647 37.7194 15.0265 41.0932 15.0265 45.2298Z" fill="black"/>
<path id="Vector_8" d="M33.8218 45.2298C33.8218 49.372 30.4535 52.7458 26.3114 52.7458C22.1692 52.7458 18.8009 49.372 18.8009 45.2298C18.8009 41.0876 22.1692 37.7194 26.3114 37.7194C30.4535 37.7194 33.8218 41.0932 33.8218 45.2298Z" fill="black"/>
<path id="Vector_9" d="M52.6174 26.373C52.6174 30.5152 49.2436 33.8835 45.107 33.8835C40.9704 33.8835 37.5909 30.5096 37.5909 26.373C37.5909 22.2364 40.9648 18.857 45.107 18.857C49.2491 18.857 52.6174 22.2309 52.6174 26.373Z" fill="black"/>
</g>
<defs>
<clipPath id="clip0_99_303">
<rect width="73" height="98.766" fill="white"/>
</clipPath>
</defs>
</svg>
