<svg width="39" height="42" viewBox="0 0 39 42" fill="none" xmlns="http://www.w3.org/2000/svg">
<g id="_x2018_&#195;&#131;&#194;&#171;&#195;&#131;&#194;&#174;&#195;&#131;&#194;&#169;_x5F_1" clip-path="url(#clip0_99_960)">
<path id="Vector" d="M29.6427 3.67651C29.5265 3.56747 29.3701 3.51296 29.2113 3.52244C25.58 3.75947 22.3635 2.89194 19.9126 1.0123C19.7064 0.853486 19.4196 0.853486 19.2134 1.0123C16.7601 2.89194 13.546 3.75947 9.91469 3.52244C9.75825 3.51296 9.59944 3.56747 9.48329 3.67651C9.36715 3.78554 9.30078 3.93724 9.30078 4.09605C9.30078 10.1379 9.96446 14.2741 11.3938 17.1113C13.034 20.3752 15.7053 21.961 19.5642 21.961C23.423 21.961 26.0943 20.3729 27.7346 17.1113C29.1615 14.2741 29.8252 10.1379 29.8252 4.09605C29.8252 3.93724 29.7588 3.78554 29.6427 3.67651ZM25.2055 9.3581L19.1731 16.2628C19.064 16.3884 18.9052 16.4595 18.7417 16.4595C18.5781 16.4595 18.4169 16.3884 18.3079 16.2628L15.1459 12.641C14.9373 12.4016 14.961 12.0389 15.2004 11.8279C15.4398 11.6194 15.8025 11.6431 16.0111 11.8825L18.7417 15.0065L24.3403 8.59724C24.5489 8.35784 24.9139 8.33414 25.1533 8.54272C25.3927 8.75131 25.4164 9.11396 25.2078 9.35336L25.2055 9.3581Z" fill="black"/>
<g id="Group">
<path id="Vector_2" d="M30.1878 30.9041L29.9081 30.8638C29.3535 30.7832 28.787 30.7381 28.2252 30.7287H28.0095L27.6184 22.6128C27.6042 22.3331 27.7322 22.1411 27.8388 22.0273C28.0166 21.8401 28.2797 21.7334 28.5641 21.7334C28.8486 21.7334 29.1093 21.8306 29.3155 22.0107C29.517 22.1838 29.6355 22.4113 29.6521 22.6531L30.1925 30.9064L30.1878 30.9041Z" fill="black"/>
<path id="Vector_3" d="M27.3196 30.7453L27.0968 30.7619C26.5398 30.8045 25.978 30.8851 25.4281 30.9989L25.1579 31.0558L24.9612 24.784C24.9517 24.4877 25.0892 24.2839 25.2029 24.163C25.3902 23.971 25.6604 23.8619 25.9448 23.8619C26.2293 23.8619 26.4924 23.9639 26.701 24.1464C26.9001 24.3241 27.0186 24.5612 27.0304 24.8101L27.3172 30.7429L27.3196 30.7453Z" fill="black"/>
<path id="Vector_4" d="M38.3818 30.1149C38.1567 31.018 37.8011 31.8618 37.4266 32.7554C37.2559 33.1654 37.0758 33.5897 36.9122 34.0235C36.7605 34.417 36.616 34.8412 36.4761 35.2489C35.8338 37.1167 35.1085 39.231 33.4137 40.2621C32.3044 40.94 31.0055 41.2979 29.6639 41.2979C28.3223 41.2979 27.0684 40.9376 25.9236 40.2526C24.7929 39.5771 23.8614 38.6147 23.2285 37.4746C22.662 36.4554 22.3539 35.3153 22.3373 34.1823L22.2496 27.8939C22.2449 27.6355 22.3492 27.3914 22.5388 27.2089C22.7331 27.0216 22.9962 26.9197 23.2783 26.9197C23.8638 26.9197 24.3521 27.363 24.3686 27.9105L24.4729 31.2384L24.2691 31.3C24.1719 31.3285 24.0747 31.3593 23.9799 31.3901C23.8922 31.4185 23.8211 31.4802 23.7808 31.5631C23.7405 31.6461 23.731 31.7385 23.7619 31.8262C23.8069 31.9684 23.9396 32.0633 24.089 32.0633C24.1245 32.0633 24.1624 32.0585 24.1956 32.0443C25.3523 31.665 26.528 31.4565 27.6894 31.4209C27.8056 31.4185 27.9217 31.4162 28.0379 31.4162C28.8461 31.4162 29.6734 31.4991 30.4816 31.665L30.5172 31.6722C30.8775 31.7456 31.2449 31.8357 31.6075 31.9424C31.6407 31.9518 31.6715 31.9566 31.7047 31.9566C31.8564 31.9566 31.9939 31.8547 32.0366 31.7077C32.0887 31.5252 31.9844 31.3332 31.8019 31.2787C31.5649 31.2099 31.3136 31.1436 31.0576 31.082L30.8917 31.044L30.4579 24.4119C30.4437 24.1725 30.529 23.9474 30.6973 23.7814C30.8751 23.6084 31.124 23.5112 31.3966 23.5112C31.9749 23.5112 32.4798 23.9403 32.5225 24.4641L33.281 33.6679L33.2525 33.7248C33.1174 34.0069 32.9965 34.1799 32.8709 34.2676L32.7832 34.3293L32.6789 34.3008C32.5912 34.2771 32.4656 34.2297 32.3542 34.187C32.2475 34.1467 32.148 34.1088 32.065 34.0875C31.5317 33.9524 31.0126 33.886 30.5219 33.886C29.6307 33.886 28.8011 34.1088 28.0568 34.5497C27.8933 34.6469 27.8388 34.8602 27.9359 35.0214C27.9976 35.1257 28.1113 35.192 28.2322 35.192C28.2939 35.192 28.3531 35.1754 28.4076 35.1446C29.0405 34.7701 29.754 34.5805 30.529 34.5805C30.9628 34.5805 31.425 34.6398 31.8967 34.7606C31.9346 34.7701 32.001 34.7938 32.1124 34.8365C32.3423 34.9218 32.577 35.0119 32.7832 35.0119C32.8472 35.0119 32.9041 35.0048 32.9586 34.9858C33.5749 34.7938 33.8522 34.1136 34.0774 33.5565C34.1177 33.457 34.1556 33.3622 34.1935 33.2816C34.2741 33.1062 34.3571 32.9142 34.4448 32.7103L34.4495 32.6985C35.1938 30.9777 35.9262 29.5531 37.3247 29.5531C37.3436 29.5531 37.3626 29.5531 37.3839 29.5531C37.8533 29.5673 38.2657 29.7119 38.3652 29.8968L38.3842 29.9347L38.3889 29.975C38.3937 30.0153 38.3889 30.0627 38.3771 30.1172L38.3818 30.1149Z" fill="black"/>
<path id="Vector_5" d="M8.89073 30.9041L9.17042 30.8638C9.72507 30.7832 10.2916 30.7381 10.8533 30.7287H11.069L11.4601 22.6128C11.4743 22.3331 11.3464 22.1411 11.2397 22.0273C11.0619 21.8401 10.7988 21.7334 10.5144 21.7334C10.2299 21.7334 9.96921 21.8306 9.763 22.0107C9.56152 22.1838 9.44301 22.4113 9.42641 22.6531L8.88599 30.9064L8.89073 30.9041Z" fill="black"/>
<path id="Vector_6" d="M11.7612 30.7453L11.984 30.7619C12.541 30.8045 13.1028 30.8851 13.6527 30.9989L13.9229 31.0558L14.1196 24.784C14.1291 24.4877 13.9916 24.2839 13.8778 24.163C13.6906 23.971 13.4204 23.8619 13.1359 23.8619C12.8515 23.8619 12.5884 23.9639 12.3798 24.1464C12.1807 24.3241 12.0622 24.5612 12.0503 24.8101L11.7635 30.7429L11.7612 30.7453Z" fill="black"/>
<path id="Vector_7" d="M0.698869 30.1149C0.924047 31.018 1.27959 31.8618 1.6541 32.7554C1.82476 33.1654 2.0049 33.5897 2.16845 34.0235C2.32015 34.417 2.46474 34.8412 2.60459 35.2489C3.24694 37.1167 3.97225 39.231 5.66701 40.2621C6.77631 40.94 8.07523 41.2979 9.41681 41.2979C10.7584 41.2979 12.0123 40.9376 13.1571 40.2526C14.2878 39.5771 15.2193 38.6147 15.8522 37.4746C16.4187 36.4554 16.7268 35.3153 16.7434 34.1823L16.8311 27.8939C16.8358 27.6355 16.7315 27.3914 16.5419 27.2089C16.3476 27.0216 16.0845 26.9197 15.8024 26.9197C15.2169 26.9197 14.7286 27.363 14.7121 27.9105L14.6078 31.2384L14.8116 31.3C14.9088 31.3285 15.006 31.3593 15.1008 31.3901C15.1885 31.4185 15.2596 31.4802 15.2999 31.5631C15.3402 31.6461 15.3497 31.7385 15.3188 31.8262C15.2738 31.9684 15.1411 32.0633 14.9917 32.0633C14.9562 32.0633 14.9183 32.0585 14.8851 32.0443C13.7284 31.665 12.5527 31.4565 11.3913 31.4209C11.2751 31.4185 11.159 31.4162 11.0428 31.4162C10.2346 31.4162 9.40733 31.4991 8.59906 31.665L8.56351 31.6722C8.20322 31.7456 7.83583 31.8357 7.47317 31.9424C7.43999 31.9518 7.40917 31.9566 7.37599 31.9566C7.22429 31.9566 7.08681 31.8547 7.04415 31.7077C6.992 31.5252 7.09629 31.3332 7.27881 31.2787C7.51584 31.2099 7.76709 31.1436 8.02308 31.082L8.189 31.044L8.62277 24.4119C8.63699 24.1725 8.55166 23.9474 8.38336 23.7814C8.20559 23.6084 7.95671 23.5112 7.68413 23.5112C7.10578 23.5112 6.6009 23.9403 6.55824 24.4641L5.79974 33.6679L5.82819 33.7248C5.96329 34.0069 6.08418 34.1799 6.2098 34.2676L6.29751 34.3293L6.4018 34.3008C6.4895 34.2771 6.61512 34.2297 6.72653 34.187C6.83319 34.1467 6.93274 34.1088 7.0157 34.0875C7.54902 33.9524 8.06812 33.886 8.55877 33.886C9.45 33.886 10.2796 34.1088 11.0239 34.5497C11.1874 34.6469 11.2419 34.8602 11.1448 35.0214C11.0831 35.1257 10.9694 35.192 10.8485 35.192C10.7868 35.192 10.7276 35.1754 10.6731 35.1446C10.0402 34.7701 9.32674 34.5805 8.55166 34.5805C8.11789 34.5805 7.65568 34.6398 7.184 34.7606C7.14607 34.7701 7.0797 34.7938 6.9683 34.8365C6.73838 34.9218 6.50372 35.0119 6.29751 35.0119C6.23351 35.0119 6.17662 35.0048 6.1221 34.9858C5.50583 34.7938 5.2285 34.1136 5.00332 33.5565C4.96303 33.457 4.9251 33.3622 4.88718 33.2816C4.80659 33.1062 4.72363 32.9142 4.63593 32.7103L4.63119 32.6985C3.88692 30.9777 3.15449 29.5531 1.75602 29.5531C1.73706 29.5531 1.7181 29.5531 1.69676 29.5531C1.22744 29.5673 0.815013 29.7119 0.715461 29.8968L0.696499 29.9347L0.691758 29.975C0.687017 30.0153 0.691758 30.0627 0.703609 30.1172L0.698869 30.1149Z" fill="black"/>
</g>
</g>
<defs>
<clipPath id="clip0_99_960">
<rect width="37.7114" height="40.4064" fill="white" transform="translate(0.684814 0.891357)"/>
</clipPath>
</defs>
</svg>
