<svg width="115" height="87" viewBox="0 0 115 87" fill="none" xmlns="http://www.w3.org/2000/svg">
<g id="Group 10">
<g id="Group 9">
<path id="Vector" d="M114.306 11.2965C114.264 11.0978 114.168 10.9232 114.017 10.7847C113.867 10.6462 113.686 10.5558 113.487 10.5257C113.439 10.5197 113.397 10.5137 113.349 10.5137C113.331 10.5137 113.307 10.5137 113.288 10.5137C111.59 10.6161 109.886 10.6703 108.23 10.6703C94.387 10.6703 82.0068 7.03929 72.4206 0.174786C72.252 0.0543556 72.0533 -0.00585938 71.8485 -0.00585938C71.6438 -0.00585938 71.4451 0.0543556 71.2825 0.174786C61.7023 7.03929 49.3161 10.6642 35.4727 10.6703C33.8167 10.6703 32.1127 10.6161 30.4146 10.5137C30.3965 10.5137 30.3785 10.5137 30.3544 10.5137C30.3062 10.5137 30.2641 10.5137 30.2159 10.5257C30.0172 10.5498 29.8305 10.6402 29.686 10.7786C29.5897 10.869 29.5114 10.9834 29.4572 11.1038C29.403 11.2303 29.3789 11.3567 29.3789 11.4952C29.3789 12.1817 29.3789 12.8561 29.3849 13.5244V13.9219C29.4331 19.7808 29.6499 25.0195 30.0473 29.927L30.0654 30.1438C30.1135 30.6737 30.1557 31.1975 30.2039 31.7154L30.2219 31.9141C30.2641 32.3175 30.3002 32.721 30.3423 33.1064V33.1184L30.3484 33.1666C30.5109 34.7502 30.6856 36.2797 30.8903 37.773C31.637 37.8633 32.3415 38.1102 32.9617 38.4836C34.4972 39.4048 35.5329 41.0788 35.5449 42.9816C35.581 43.8307 35.3402 46.4139 35.021 49.0573C34.8464 50.4904 34.6537 51.9416 34.4671 53.1399L34.3587 53.8384C34.3587 53.8384 34.3707 53.8805 34.3767 53.8986H53.3866C56.3131 53.8986 58.6976 56.0362 58.6976 58.6616C58.6976 59.4926 58.4447 60.3175 57.969 61.0461L57.5716 61.6543L58.2159 61.9855C59.8236 62.8104 60.8171 64.4362 60.8171 66.2246C60.8171 68.013 59.8176 69.6388 58.2159 70.4637L57.5716 70.7949L57.969 71.4031C58.4447 72.1317 58.6976 72.9566 58.6976 73.7936C58.6976 75.1786 58.0412 76.4491 56.9212 77.3343C56.566 77.6173 56.1625 77.8642 55.723 78.0568L55.0245 78.37L55.3195 78.8216C56.9574 79.4779 58.6855 80.0199 60.492 80.4474L60.5341 80.4594C60.9195 80.5497 61.3049 80.634 61.6963 80.7123L61.8348 80.7424C62.2503 80.8267 62.6657 80.905 63.0872 80.9773L63.1535 80.9893C65.3935 81.3687 67.784 81.5915 70.2528 81.6577H70.3371C70.8429 81.6758 71.3487 81.6818 71.8546 81.6818C72.3604 81.6818 72.8722 81.6758 73.372 81.6637H73.4623C75.9371 81.5975 78.3277 81.3687 80.5857 80.9833H80.6279C81.0554 80.905 81.4709 80.8267 81.8864 80.7424L82.0249 80.7123C82.4163 80.628 82.8016 80.5437 83.187 80.4594L83.2352 80.4474C93.1887 78.087 100.481 72.3906 105.521 63.0272C109.531 55.5786 112.096 45.8117 113.373 33.1545V33.1064C113.421 32.7089 113.457 32.3115 113.499 31.9081L113.517 31.7214C113.565 31.1975 113.608 30.6737 113.656 30.1378L113.674 29.927C114.071 25.0195 114.288 19.7868 114.336 13.9219V13.5305C114.342 12.8621 114.348 12.1817 114.348 11.4952C114.348 11.429 114.342 11.3627 114.33 11.2965H114.306ZM53.5793 45.3059C52.9591 44.6496 52.9952 43.6139 53.6516 42.9997C54.3139 42.3795 55.3436 42.4156 55.9638 43.0719L68.3199 56.2891L92.9719 29.927C93.5922 29.2707 94.6218 29.2345 95.2842 29.8548C95.9466 30.4689 95.9767 31.5046 95.3625 32.161L69.5182 59.7997C69.2111 60.1308 68.7776 60.3175 68.326 60.3175C67.8743 60.3175 67.4408 60.1308 67.1337 59.7997L53.5853 45.3059H53.5793Z" fill="black"/>
<path id="Vector_2" d="M55.1093 76.19C55.2177 76.1358 55.3201 76.0756 55.4225 76.0093C55.4526 75.9913 55.4767 75.9732 55.5068 75.9551C55.5489 75.9311 55.5911 75.9009 55.6272 75.8648C55.6513 75.8468 55.6814 75.8227 55.6995 75.8046C55.8078 75.7203 55.9042 75.63 55.9945 75.5336C56.0427 75.4794 56.0909 75.4313 56.133 75.3771C56.1872 75.3108 56.2414 75.2446 56.2896 75.1723C56.3618 75.064 56.4341 74.9496 56.4883 74.8351C56.5485 74.7087 56.5967 74.5822 56.6388 74.4498C56.6629 74.3655 56.681 74.2751 56.699 74.1848C56.7111 74.1306 56.7171 74.0825 56.7231 74.0222V74.0042C56.7291 73.9379 56.7352 73.8657 56.7352 73.7934C56.7352 72.2459 55.2298 70.9934 53.3872 70.9934H46.5949C45.9386 70.3732 45.3124 69.7229 44.7042 69.0304H56.0607C57.6083 69.0304 58.8607 67.7719 58.8607 66.2244C58.8607 64.6769 57.6083 63.4244 56.0607 63.4244H44.2526C43.7106 63.4244 43.2711 62.9848 43.2711 62.4429C43.2711 61.901 43.7106 61.4614 44.2526 61.4614H53.3872C55.2358 61.4614 56.7352 60.2029 56.7352 58.6614C56.7352 57.1199 55.2298 55.8614 53.3872 55.8614H37.1292H35.0397H33.161C32.8659 55.8614 32.5829 55.7289 32.4023 55.5001C32.2156 55.2653 32.1434 54.9702 32.2036 54.6752C32.2156 54.633 32.2216 54.5969 32.2277 54.5547C32.2517 54.4464 32.2758 54.3199 32.2939 54.1934C32.336 53.9887 32.3722 53.7599 32.4143 53.519C32.4384 53.3565 32.4685 53.1879 32.4986 53.0072C32.5287 52.8266 32.5588 52.6399 32.5889 52.4472C32.607 52.3208 32.6251 52.1883 32.6431 52.0558C32.7034 51.6464 32.7636 51.2248 32.8238 50.7853C32.8418 50.6528 32.8539 50.5264 32.878 50.3879C32.9141 50.1169 32.9442 49.8519 32.9803 49.581C32.9924 49.4786 33.0044 49.3762 33.0225 49.2799C33.0225 49.2498 33.0345 49.2137 33.0345 49.1775C33.0345 49.1354 33.0466 49.0993 33.0466 49.0571C33.0646 48.9367 33.0767 48.8162 33.0948 48.7018C33.1068 48.5995 33.1188 48.4971 33.1249 48.4008C33.1429 48.2683 33.155 48.1358 33.173 48.0034C33.173 47.9853 33.173 47.9793 33.173 47.9672C33.1911 47.8227 33.2031 47.6782 33.2212 47.5337C33.2332 47.4554 33.2393 47.3711 33.2453 47.2988C33.2573 47.1664 33.2754 47.0339 33.2874 46.9074C33.3175 46.6304 33.3477 46.3655 33.3717 46.1066C33.3778 46.0403 33.3838 45.9801 33.3898 45.9199C33.3898 45.9018 33.3898 45.8898 33.3898 45.8717C33.3958 45.7995 33.4018 45.7272 33.4079 45.661C33.4079 45.6369 33.4139 45.6128 33.4139 45.5948C33.4199 45.5285 33.4259 45.4623 33.432 45.396C33.438 45.3298 33.444 45.2696 33.45 45.2094C33.456 45.1552 33.4621 45.101 33.4621 45.0468C33.5042 44.5892 33.5343 44.1857 33.5524 43.8606C33.5584 43.7943 33.5644 43.7281 33.5644 43.6619C33.5765 43.415 33.5765 43.2283 33.5704 43.1139C33.5704 43.0898 33.5704 43.0537 33.5704 43.0296C33.5704 42.9332 33.5704 42.8429 33.5584 42.7466C33.5524 42.6683 33.5464 42.59 33.5343 42.5178C33.5343 42.4877 33.5223 42.4575 33.5163 42.4274C33.4922 42.2649 33.45 42.1083 33.3958 41.9578C33.3958 41.9457 33.3898 41.9397 33.3838 41.9337C33.3657 41.8795 33.3416 41.8253 33.3236 41.7711C33.3236 41.7591 33.3115 41.747 33.3055 41.729C33.2935 41.7049 33.2874 41.6748 33.2694 41.6507C33.2453 41.5844 33.2092 41.5182 33.173 41.452C33.173 41.4459 33.167 41.4399 33.161 41.4339C33.1188 41.3616 33.0827 41.2954 33.0345 41.2231C32.9924 41.1629 32.9563 41.1027 32.9141 41.0485C32.896 41.0244 32.878 41.0003 32.8599 40.9823C32.8117 40.9221 32.7636 40.8619 32.7154 40.8077C32.6552 40.7414 32.595 40.6752 32.5347 40.615C32.4745 40.5608 32.4143 40.5066 32.3481 40.4464C32.3481 40.4464 32.3421 40.4464 32.336 40.4404C32.2698 40.3862 32.1975 40.332 32.1253 40.2778C32.1132 40.2657 32.1012 40.2597 32.0952 40.2537C32.035 40.2115 31.9687 40.1694 31.9025 40.1333C31.752 40.0429 31.5954 39.9646 31.4268 39.9044C31.4268 39.9044 31.4208 39.9044 31.4148 39.9044C31.3305 39.8743 31.2461 39.8442 31.1618 39.8201C31.0896 39.796 31.0113 39.778 30.9391 39.7599C30.8608 39.7419 30.7825 39.7298 30.7042 39.7178C30.6259 39.7057 30.5477 39.6937 30.4634 39.6937C30.3851 39.6877 30.3008 39.6816 30.2225 39.6816C29.4999 39.6816 28.8616 40.1634 28.6689 40.8558L26.9649 46.9797C26.0255 50.3337 23.9963 53.3504 21.2324 55.476L20.6242 55.9517C18.6492 57.4752 16.3068 58.5349 13.85 59.0227L13.3262 59.1251V81.796L13.7236 81.9646C17.0294 83.3917 20.6604 84.1384 24.2371 84.1384H50.7558C52.6405 84.1384 54.176 82.8859 54.176 81.3384C54.176 79.7908 52.6405 78.5384 50.7558 78.5384H44.1924C43.6504 78.5384 43.2109 78.0988 43.2109 77.5569C43.2109 77.0149 43.6504 76.5754 44.1924 76.5754H53.3812C53.598 76.5754 53.8147 76.5573 54.0255 76.5212C54.0797 76.5151 54.1278 76.5031 54.182 76.4911C54.3386 76.4609 54.4831 76.4248 54.6276 76.3706C54.6276 76.3706 54.6397 76.3706 54.6397 76.3646C54.6939 76.3465 54.7481 76.3285 54.7962 76.3104C54.8263 76.2984 54.8564 76.2863 54.8926 76.2683C54.9468 76.2442 55.001 76.2201 55.0612 76.196C55.0792 76.184 55.1033 76.1779 55.1214 76.1659L55.1093 76.19ZM31.2582 80.664C30.1141 80.7242 28.958 80.7723 27.8139 80.7723C24.6044 80.7723 21.4913 80.405 19.0225 78.9057C18.3842 78.5203 18.1795 77.6833 18.5709 77.045C18.9563 76.4068 19.7933 76.202 20.4315 76.5934C23.1171 78.2252 27.1877 78.1711 31.1197 77.9663C31.8784 77.9242 32.5046 78.5022 32.5408 79.2489C32.5769 79.9956 32.0049 80.6338 31.2582 80.67V80.664Z" fill="black"/>
<path id="Vector_3" d="M9.9716 54.8558H1.39097C0.620214 54.8558 0 55.4821 0 56.2468V84.879C0 85.6438 0.626236 86.27 1.39097 86.27H9.9716C10.7363 86.27 11.3626 85.6438 11.3626 84.879V56.2468C11.3626 55.4761 10.7363 54.8558 9.9716 54.8558Z" fill="black"/>
</g>
</g>
</svg>
