<svg width="178" height="20" viewBox="0 0 178 20" fill="none" xmlns="http://www.w3.org/2000/svg">
<g id="logo_gris_vertical_con_tipografia" clip-path="url(#clip0_99_559)">
<path id="Vector" d="M4.00322 1.1027C4.40966 1.1027 4.8761 1.09591 5.40141 1.08346C5.92673 1.071 6.36033 1.06421 6.70111 1.06421C9.28804 1.06421 11.2444 1.61556 12.5712 2.71939C13.897 3.8221 14.5604 5.43086 14.5604 7.5457C14.5604 9.09559 14.2219 10.4191 13.546 11.515C12.869 12.612 11.9338 13.4487 10.7394 14.026C9.54391 14.6046 8.17175 14.8933 6.62186 14.8933C6.43845 14.8933 6.18146 14.8899 5.85314 14.8831C5.52482 14.8763 5.1897 14.8706 4.84893 14.8638C4.50702 14.857 4.21833 14.8536 3.98171 14.8536C3.77114 14.8536 3.47565 14.857 3.09525 14.8638C2.71372 14.8706 2.32653 14.8763 1.93254 14.8831C1.53856 14.8899 1.21024 14.8933 0.947584 14.8933C0.921545 14.6963 0.921545 14.4868 0.947584 14.2627C1.5646 14.197 2.005 14.1347 2.26766 14.0759C2.53031 14.017 2.69447 13.8891 2.76014 13.6921C2.8258 13.4951 2.85863 13.16 2.85863 12.6879V3.52661C2.85863 2.97526 2.8258 2.58127 2.76014 2.34466C2.69447 2.10804 2.52692 1.95407 2.25747 1.88161C1.98802 1.80916 1.55101 1.74689 0.947584 1.69481C0.921545 1.49782 0.921545 1.28837 0.947584 1.06421C1.22383 1.06421 1.55101 1.06761 1.93254 1.0744C2.31294 1.08119 2.69108 1.08798 3.06468 1.09364C3.43942 1.10044 3.75076 1.10383 3.99983 1.10383L4.00322 1.1027ZM5.02668 1.96992V13.2573C5.02668 13.4804 5.03347 13.6649 5.04592 13.8087C5.67652 13.9932 6.32637 14.0849 6.9966 14.0849C8.13892 14.0849 9.09445 13.8155 9.86317 13.2777C10.6319 12.7388 11.2093 12.0041 11.5965 11.0712C11.9837 10.1383 12.1773 9.08201 12.1773 7.90005C12.1773 6.06146 11.7074 4.59761 10.7689 3.50736C9.83034 2.41711 8.4412 1.87256 6.60261 1.87256C6.27429 1.87256 5.96295 1.88614 5.66747 1.91218C5.37198 1.93822 5.158 1.9586 5.02668 1.97105V1.96992Z" fill="white"/>
<path id="Vector_2" d="M16.0783 14.8921C16.0387 14.6826 16.0387 14.4788 16.0783 14.2818C16.5244 14.2558 16.8527 14.2128 17.0633 14.1539C17.2727 14.095 17.4108 13.9671 17.4765 13.7701C17.5422 13.5731 17.575 13.2584 17.575 12.8248V8.4117C17.575 7.89998 17.5524 7.51845 17.5059 7.26938C17.4595 7.02031 17.335 6.84596 17.1312 6.74746C16.9274 6.64896 16.5833 6.56745 16.0976 6.50179C16.0579 6.31838 16.0579 6.14743 16.0976 5.99006C16.6229 5.88477 17.1346 5.76363 17.6339 5.62551C18.1331 5.48739 18.6585 5.30738 19.2098 5.08435L19.5449 5.20209V6.9354C20.4642 5.76703 21.4028 5.18171 22.3617 5.18171C22.8213 5.18171 23.1621 5.30285 23.3863 5.54626C23.6093 5.78967 23.7214 6.06139 23.7214 6.36367C23.7214 6.71802 23.6036 6.99087 23.367 7.18107C23.1304 7.37127 22.861 7.46637 22.5598 7.46637C22.3096 7.46637 22.0639 7.4007 21.8205 7.26938C21.5771 7.13805 21.3971 6.93426 21.2782 6.65915C20.8322 6.65915 20.4348 6.8335 20.0861 7.18107C19.7374 7.52864 19.5642 7.93281 19.5642 8.39246V12.6278C19.5642 13.1395 19.5936 13.5075 19.6525 13.7305C19.7113 13.9535 19.8687 14.095 20.1257 14.1539C20.3816 14.2128 20.7982 14.2558 21.3767 14.2818C21.4028 14.4664 21.4028 14.669 21.3767 14.8921C20.9295 14.8921 20.471 14.8853 19.9978 14.8728C19.5245 14.8604 19.0389 14.8536 18.5396 14.8536C18.0403 14.8536 17.6237 14.8604 17.2489 14.8728C16.8742 14.8853 16.4836 14.8921 16.0772 14.8921H16.0783Z" fill="white"/>
<path id="Vector_3" d="M30.9706 15.0699C30.1034 15.0699 29.5589 14.6362 29.3358 13.7702C28.4029 14.6634 27.4508 15.1095 26.4794 15.1095C25.8092 15.1095 25.242 14.9091 24.7756 14.5083C24.3091 14.1075 24.0759 13.5528 24.0759 12.8441C24.0759 11.1108 25.842 10.0205 29.3754 9.57446C29.3754 9.25972 29.3788 8.93706 29.3856 8.60874C29.3924 8.28042 29.3958 7.93286 29.3958 7.56491C29.3958 7.10526 29.2283 6.74751 28.8932 6.49165C28.558 6.23578 28.155 6.10785 27.6818 6.10785C27.3399 6.10785 27.0512 6.15993 26.8146 6.26522C26.8146 6.5675 26.7489 6.87544 26.6176 7.19131C26.4862 7.50604 26.3051 7.77209 26.0753 7.98946C25.8454 8.2057 25.5658 8.31439 25.2386 8.31439C24.9499 8.31439 24.7235 8.23287 24.5593 8.06871C24.3952 7.90455 24.3137 7.70416 24.3137 7.46755C24.3137 7.15281 24.462 6.85393 24.7575 6.5709C25.0529 6.28899 25.4299 6.04558 25.8896 5.8418C26.3492 5.63801 26.8281 5.47725 27.3274 5.35951C27.8267 5.24177 28.2727 5.18176 28.6667 5.18176C29.1524 5.18176 29.603 5.27007 30.0162 5.44781C30.4295 5.62556 30.7646 5.88822 31.0204 6.23578C31.2763 6.58335 31.4042 7.01356 31.4042 7.52642C31.4042 7.84115 31.3974 8.25212 31.385 8.75819C31.3714 9.26425 31.3623 9.80202 31.3556 10.3737C31.3488 10.9455 31.3386 11.4866 31.3261 11.9984C31.3125 12.5101 31.3069 12.9245 31.3069 13.2392C31.3069 13.6592 31.4903 13.8698 31.8582 13.8698C32.0948 13.8698 32.456 13.7905 32.9417 13.6332C32.9938 13.6988 33.03 13.7713 33.0504 13.8494C33.0696 13.9287 33.0866 14 33.1002 14.0656C32.7719 14.42 32.4266 14.6759 32.0665 14.8344C31.7054 14.9917 31.3408 15.071 30.9729 15.071L30.9706 15.0699ZM29.3358 13.2381L29.3754 10.2832C28.1675 10.4405 27.3365 10.6964 26.8836 11.0519C26.4308 11.4063 26.2043 11.8591 26.2043 12.4116C26.2043 12.8712 26.3255 13.2222 26.5689 13.4656C26.8123 13.709 27.1168 13.8302 27.4848 13.8302C27.7214 13.8302 27.9874 13.7781 28.2829 13.6728C28.5784 13.5675 28.9294 13.4237 29.337 13.2392L29.3358 13.2381Z" fill="white"/>
<path id="Vector_4" d="M37.5302 19.8961C36.3743 19.8961 35.4425 19.6923 34.7327 19.2859C34.024 18.8783 33.6685 18.3134 33.6685 17.5922C33.6685 17.0273 33.8655 16.5608 34.2594 16.194C34.6534 15.8261 35.1391 15.4581 35.7176 15.0913C35.2059 14.9736 34.8176 14.7664 34.5549 14.4709C34.2923 14.1754 34.161 13.8245 34.161 13.4169C34.161 12.7082 34.6795 11.9915 35.7176 11.2692C35.284 10.993 34.9365 10.6352 34.6738 10.196C34.4112 9.75556 34.2798 9.24723 34.2798 8.66871C34.2798 7.94641 34.4666 7.326 34.8414 6.80748C35.2161 6.28896 35.7086 5.88818 36.3188 5.60628C36.929 5.32438 37.5823 5.18286 38.2785 5.18286C39.3031 5.18286 40.1568 5.4659 40.8394 6.0297C41.5481 5.46476 42.2444 5.18286 42.9271 5.18286C43.2679 5.18286 43.5373 5.25871 43.7343 5.40929C43.9313 5.55986 44.0298 5.78063 44.0298 6.06933C44.0298 6.35802 43.9381 6.58784 43.7536 6.7588C43.569 6.92975 43.346 7.01466 43.0833 7.01466C42.8207 7.01466 42.6203 6.93881 42.4437 6.78823C42.2659 6.63766 42.1516 6.42368 42.0984 6.14744C41.9138 6.18707 41.7667 6.23349 41.6546 6.28556C41.5425 6.33764 41.4146 6.4101 41.2708 6.5018C41.7168 7.06674 41.941 7.73583 41.941 8.51135C41.941 9.23365 41.7633 9.84727 41.4089 10.3533C41.0545 10.8594 40.5847 11.2466 40.0005 11.516C39.4163 11.7855 38.7755 11.9202 38.0804 11.9202C37.4238 11.9202 36.8124 11.8025 36.2486 11.5659C35.9203 11.8942 35.7561 12.2429 35.7561 12.6097C35.7561 12.938 35.8807 13.1452 36.1309 13.2301C36.3799 13.3161 36.8396 13.358 37.5098 13.358C37.8121 13.358 38.1732 13.3546 38.5933 13.3478C39.0133 13.341 39.3224 13.3376 39.5194 13.3376C40.8326 13.3376 41.778 13.5709 42.3565 14.0373C42.9339 14.5037 43.2237 15.1434 43.2237 15.9585C43.2237 16.6016 43.0663 17.1699 42.7505 17.6624C42.4357 18.1549 42.0089 18.5681 41.47 18.9032C40.9311 19.2383 40.3243 19.4874 39.6473 19.6516C38.9703 19.8157 38.265 19.8973 37.5291 19.8973L37.5302 19.8961ZM36.5645 15.1876C35.8558 15.7785 35.5003 16.4023 35.5003 17.059C35.5003 17.5186 35.6384 17.8922 35.9135 18.1821C36.1897 18.4708 36.5498 18.6813 36.997 18.8127C37.443 18.944 37.9163 19.0097 38.4155 19.0097C38.8616 19.0097 39.328 18.944 39.8137 18.8127C40.2994 18.6813 40.7126 18.4481 41.0545 18.113C41.3964 17.7779 41.5663 17.3081 41.5663 16.7046C41.5663 16.1533 41.3727 15.7593 40.9855 15.5227C40.5983 15.2861 39.8794 15.1683 38.8288 15.1683C38.5786 15.1683 38.2706 15.1717 37.9027 15.1785C37.5347 15.1853 37.1272 15.1887 36.6811 15.1887H36.5633L36.5645 15.1876ZM38.1212 11.2285C38.6986 11.2285 39.1424 10.9953 39.4514 10.5288C39.7594 10.0624 39.9145 9.41592 39.9145 8.58833C39.9145 7.76074 39.7571 7.08485 39.4412 6.59917C39.1265 6.11348 38.6657 5.87007 38.0623 5.87007C37.4974 5.87007 37.0604 6.0965 36.7524 6.54935C36.4433 7.00221 36.2894 7.643 36.2894 8.46946C36.2894 9.29592 36.4501 9.97973 36.7717 10.479C37.0932 10.9783 37.5426 11.2273 38.1212 11.2273V11.2285Z" fill="white"/>
<path id="Vector_5" d="M49.2706 15.1094C48.3116 15.1094 47.475 14.9022 46.7595 14.489C46.044 14.0757 45.4892 13.504 45.0952 12.7749C44.7013 12.0458 44.5043 11.2092 44.5043 10.2627C44.5043 9.23812 44.7115 8.34487 45.1247 7.58407C45.5379 6.82214 46.1198 6.23117 46.8682 5.81114C47.6165 5.39112 48.4769 5.18054 49.4483 5.18054C50.4197 5.18054 51.2405 5.39112 51.9503 5.81114C52.6591 6.23117 53.2115 6.80969 53.6055 7.54445C53.9995 8.28033 54.1965 9.11359 54.1965 10.0465C54.1965 10.9794 53.9893 11.8692 53.5761 12.6368C53.1629 13.4055 52.5877 14.009 51.853 14.4494C51.1171 14.8898 50.2578 15.1094 49.2728 15.1094H49.2706ZM46.7301 10.0272C46.7301 11.3665 46.9497 12.4274 47.3901 13.2085C47.8294 13.9897 48.4894 14.3803 49.3702 14.3803C50.251 14.3803 50.8544 14.009 51.3005 13.2674C51.7466 12.5259 51.9707 11.5307 51.9707 10.2831C51.9707 8.95622 51.7477 7.89994 51.3005 7.11197C50.8544 6.324 50.2035 5.93002 49.3498 5.93002C48.4962 5.93002 47.8622 6.29117 47.4093 7.01347C46.9565 7.73578 46.7301 8.73998 46.7301 10.0272Z" fill="white"/>
<path id="Vector_6" d="M61.6813 14.8921C61.6552 14.6826 61.6552 14.4788 61.6813 14.2818C62.0877 14.2558 62.39 14.2128 62.587 14.1539C62.784 14.095 62.9153 13.9671 62.981 13.7701C63.0466 13.5731 63.0794 13.2584 63.0794 12.8248V8.84531C63.0794 8.05734 62.9583 7.46976 62.7149 7.08257C62.4715 6.69538 61.9892 6.50179 61.2669 6.50179C60.8854 6.50179 60.5186 6.57085 60.1642 6.70897C59.8098 6.84709 59.4215 7.10635 59.0015 7.48675V12.6278C59.0015 13.1395 59.0309 13.5075 59.0898 13.7305C59.1487 13.9535 59.2766 14.095 59.4736 14.1539C59.6706 14.2128 59.9785 14.2558 60.3997 14.2818C60.4257 14.4788 60.4257 14.6826 60.3997 14.8921C60.0317 14.8921 59.6479 14.8853 59.2472 14.8728C58.8464 14.8604 58.4162 14.8536 57.9565 14.8536C57.5365 14.8536 57.1221 14.8604 56.7157 14.8728C56.3081 14.8853 55.9085 14.8921 55.5145 14.8921C55.4749 14.6826 55.4749 14.4788 55.5145 14.2818C55.9606 14.2558 56.2889 14.2128 56.4995 14.1539C56.7089 14.095 56.847 13.9671 56.9127 13.7701C56.9784 13.5731 57.0112 13.2584 57.0112 12.8248V8.4117C57.0112 7.89998 56.9874 7.51845 56.9421 7.26938C56.8957 7.02031 56.7712 6.84596 56.5674 6.74746C56.3636 6.64896 56.0194 6.56745 55.5338 6.50179C55.4941 6.31838 55.4941 6.14743 55.5338 5.99006C56.6636 5.76703 57.7007 5.46475 58.646 5.08435L58.9811 5.20209V6.67953C59.5845 6.12818 60.1755 5.74099 60.754 5.51683C61.3314 5.2938 61.8828 5.18171 62.4092 5.18171C63.2764 5.18171 63.9387 5.43758 64.3984 5.95044C64.858 6.46216 65.0879 7.19805 65.0879 8.15697V12.6289C65.0879 13.1406 65.1173 13.5086 65.1762 13.7316C65.235 13.9546 65.363 14.0962 65.56 14.155C65.757 14.2139 66.0717 14.2569 66.5053 14.283C66.5313 14.48 66.5313 14.6837 66.5053 14.8932C66.1113 14.8932 65.7275 14.8864 65.3528 14.8739C64.978 14.8615 64.5422 14.8547 64.0429 14.8547C63.5436 14.8547 63.1338 14.8615 62.7726 14.8739C62.4115 14.8864 62.0469 14.8932 61.679 14.8932L61.6813 14.8921Z" fill="white"/>
<path id="Vector_7" d="M77.618 14.9125C77.1584 14.9125 76.6829 14.9023 76.1893 14.8831C75.6968 14.8638 75.2598 14.8536 74.8794 14.8536C74.6688 14.8536 74.3733 14.857 73.9929 14.8638C73.6114 14.8706 73.2242 14.8763 72.8302 14.8831C72.4363 14.8899 72.1079 14.8933 71.8453 14.8933C71.8192 14.6963 71.8192 14.4868 71.8453 14.2627C72.4623 14.197 72.9027 14.1347 73.1653 14.0759C73.428 14.017 73.5922 13.8857 73.6578 13.6819C73.7235 13.4781 73.7563 13.1464 73.7563 12.6867V3.52661C73.7563 2.97526 73.7235 2.58127 73.6578 2.34466C73.5922 2.10804 73.4246 1.95407 73.1552 1.88161C72.8857 1.80916 72.4487 1.74689 71.8453 1.69481C71.8192 1.49782 71.8192 1.28837 71.8453 1.06421C72.1215 1.06421 72.4487 1.06761 72.8302 1.0744C73.2106 1.08119 73.5888 1.08798 73.9624 1.09364C74.3371 1.10044 74.6484 1.10383 74.8975 1.10383C75.3039 1.10383 75.7738 1.09704 76.3059 1.08459C76.838 1.07213 77.2614 1.06534 77.5762 1.06534C79.1781 1.06534 80.3669 1.328 81.1413 1.85331C81.9156 2.37862 82.304 3.14055 82.304 4.13796C82.304 5.8056 81.2726 6.93547 79.211 7.52645V7.5457C79.9197 7.59891 80.5673 7.76193 81.1514 8.03818C81.7356 8.31442 82.2055 8.70161 82.5598 9.20088C82.9142 9.70015 83.0919 10.3172 83.0919 11.0531C83.0919 11.9859 82.8089 12.7637 82.2451 13.3875C81.6802 14.0113 80.9771 14.4348 80.137 14.6578C79.7691 14.7495 79.3751 14.8152 78.9551 14.8548C78.5351 14.8944 78.0879 14.9136 77.6158 14.9136L77.618 14.9125ZM75.9232 7.34757C76.0285 7.36116 76.1236 7.36682 76.2085 7.36682H76.4542C77.7154 7.36682 78.6109 7.14039 79.143 6.68754C79.6751 6.23468 79.9412 5.5486 79.9412 4.62931C79.9412 2.79072 78.9891 1.87142 77.0848 1.87142C76.8878 1.87142 76.701 1.88161 76.5233 1.90086C76.3455 1.9201 76.1451 1.94388 75.9221 1.96992V7.34757H75.9232ZM77.0859 8.15592C76.9286 8.15592 76.7474 8.15931 76.5436 8.16611C76.3399 8.1729 76.1327 8.18875 75.9232 8.21479V13.4158C75.9232 13.6389 75.93 13.8234 75.9425 13.9672C76.5199 14.0849 77.0384 14.1449 77.4992 14.1449C78.5102 14.1449 79.2947 13.8925 79.8529 13.3864C80.411 12.8815 80.6895 12.1093 80.6895 11.0712C80.6895 10.033 80.4008 9.32089 79.8223 8.85558C79.2438 8.38914 78.3313 8.15592 77.0837 8.15592H77.0859Z" fill="white"/>
<path id="Vector_8" d="M89.0821 14.8921C88.7006 14.8921 88.3134 14.8853 87.9194 14.8729C87.5254 14.8604 87.085 14.8536 86.5994 14.8536C86.1137 14.8536 85.6801 14.8604 85.2997 14.8729C84.9181 14.8853 84.5309 14.8921 84.137 14.8921C84.0973 14.6827 84.0973 14.4789 84.137 14.2819C84.583 14.2559 84.9113 14.2129 85.1219 14.154C85.3314 14.0951 85.4695 13.9672 85.5351 13.7702C85.6008 13.5732 85.6336 13.2585 85.6336 12.8249V2.95488C85.6336 2.54844 85.5974 2.24276 85.525 2.03898C85.4525 1.83519 85.3019 1.69141 85.0721 1.60537C84.8423 1.52046 84.497 1.45819 84.0373 1.41857C83.9977 1.24762 83.9977 1.071 84.0373 0.886464C84.5626 0.8208 85.1015 0.718907 85.6529 0.580787C86.2042 0.442666 86.7692 0.24907 87.3466 0L87.6817 0.117742C87.6681 0.406437 87.659 0.734757 87.6522 1.1027C87.6455 1.47065 87.6421 1.87142 87.6421 2.3039V12.6267C87.6421 13.1385 87.6715 13.5064 87.7304 13.7294C87.7892 13.9525 87.9206 14.094 88.1243 14.1529C88.3281 14.2117 88.6463 14.2547 89.0799 14.2808C89.1059 14.4778 89.1059 14.6816 89.0799 14.891L89.0821 14.8921Z" fill="white"/>
<path id="Vector_9" d="M97.0411 15.0699C96.1739 15.0699 95.6293 14.6362 95.4063 13.7702C94.4734 14.6634 93.5213 15.1095 92.5499 15.1095C91.8797 15.1095 91.3113 14.9091 90.846 14.5083C90.3796 14.1075 90.1464 13.5528 90.1464 12.8441C90.1464 11.1108 91.9125 10.0205 95.4459 9.57446C95.4459 9.25972 95.4493 8.93706 95.4561 8.60874C95.4629 8.28042 95.4663 7.93286 95.4663 7.56491C95.4663 7.10526 95.2987 6.74751 94.9636 6.49165C94.6285 6.23578 94.2255 6.10785 93.7522 6.10785C93.4103 6.10785 93.1216 6.15993 92.885 6.26522C92.885 6.5675 92.8193 6.87544 92.688 7.19131C92.5567 7.50604 92.3755 7.77209 92.1457 7.98946C91.9159 8.2057 91.6363 8.31439 91.3091 8.31439C91.0204 8.31439 90.7939 8.23287 90.6298 8.06871C90.4656 7.90455 90.383 7.70416 90.383 7.46755C90.383 7.15281 90.5313 6.85393 90.8268 6.5709C91.1223 6.28899 91.4993 6.04558 91.9589 5.8418C92.4186 5.63801 92.8975 5.47725 93.3967 5.35951C93.896 5.24177 94.3421 5.18176 94.7361 5.18176C95.2217 5.18176 95.6723 5.27007 96.0856 5.44781C96.4988 5.62556 96.8339 5.88822 97.0898 6.23578C97.3456 6.58335 97.4736 7.01356 97.4736 7.52642C97.4736 7.84115 97.4668 8.25212 97.4543 8.75819C97.4407 9.26425 97.4317 9.80202 97.4249 10.3737C97.4181 10.9455 97.4079 11.4866 97.3954 11.9984C97.3819 12.5101 97.3762 12.9245 97.3762 13.2392C97.3762 13.6592 97.5596 13.8698 97.9275 13.8698C98.1642 13.8698 98.5253 13.7905 99.011 13.6332C99.0631 13.6988 99.0993 13.7713 99.1197 13.8494C99.1389 13.9287 99.1559 14 99.1684 14.0656C98.84 14.42 98.4947 14.6759 98.1347 14.8344C97.7736 14.9917 97.409 15.071 97.0411 15.071V15.0699ZM95.4063 13.2381L95.4459 10.2832C94.2379 10.4405 93.4069 10.6964 92.9541 11.0519C92.5012 11.4063 92.2748 11.8591 92.2748 12.4116C92.2748 12.8712 92.3959 13.2222 92.6393 13.4656C92.8816 13.709 93.1873 13.8302 93.5552 13.8302C93.7919 13.8302 94.0579 13.7781 94.3534 13.6728C94.6489 13.5675 94.9998 13.4237 95.4074 13.2392L95.4063 13.2381Z" fill="white"/>
<path id="Vector_10" d="M107.757 12.9618C107.888 13.1191 107.987 13.2708 108.052 13.4146C106.962 14.5445 105.714 15.1083 104.31 15.1083C103.404 15.1083 102.628 14.8921 101.985 14.4584C101.342 14.0248 100.846 13.4474 100.498 12.7251C100.149 12.0028 99.9757 11.2013 99.9757 10.3216C99.9757 9.36269 100.173 8.49661 100.567 7.72109C100.961 6.94671 101.515 6.3297 102.231 5.86892C102.946 5.40927 103.771 5.17944 104.703 5.17944C105.189 5.17944 105.682 5.2485 106.181 5.38662C106.68 5.52475 107.1 5.73759 107.442 6.02741C107.784 6.31611 107.954 6.68405 107.954 7.13012C107.954 7.48448 107.849 7.75392 107.639 7.93733C107.429 8.12187 107.179 8.21357 106.891 8.21357C106.497 8.21357 106.162 8.03356 105.887 7.67241C105.61 7.31126 105.473 6.82897 105.473 6.22441C105.237 6.06704 104.922 5.98779 104.528 5.98779C104.055 5.98779 103.657 6.10553 103.336 6.34215C103.014 6.57877 102.752 6.8935 102.548 7.28748C102.344 7.68147 102.197 8.10489 102.104 8.55774C102.012 9.0106 101.966 9.45439 101.966 9.88687C101.966 10.6228 102.091 11.2794 102.341 11.8568C102.59 12.4353 102.958 12.8904 103.443 13.2255C103.929 13.5607 104.534 13.7282 105.256 13.7282C105.676 13.7282 106.087 13.6693 106.488 13.5505C106.889 13.4327 107.312 13.2357 107.758 12.9595L107.757 12.9618Z" fill="white"/>
<path id="Vector_11" d="M108.88 14.8921C108.866 14.8401 108.861 14.7868 108.861 14.7348V14.4291C108.861 14.3827 108.868 14.334 108.88 14.2819C109.326 14.2559 109.654 14.2129 109.865 14.154C110.074 14.0951 110.213 13.9672 110.278 13.7702C110.344 13.5732 110.377 13.2585 110.377 12.8249V2.95488C110.377 2.54844 110.34 2.24276 110.268 2.03898C110.196 1.83519 110.045 1.69141 109.815 1.60537C109.585 1.52046 109.24 1.45819 108.782 1.41857C108.768 1.36649 108.762 1.32007 108.762 1.28045V1.02458C108.762 0.98496 108.769 0.939674 108.782 0.886464C109.307 0.8208 109.846 0.718907 110.397 0.580787C110.948 0.442666 111.513 0.24907 112.091 0L112.426 0.117742C112.412 0.406437 112.403 0.734757 112.396 1.1027C112.39 1.47065 112.386 1.87142 112.386 2.3039V9.61185C112.544 9.61185 112.675 9.58581 112.78 9.5326C112.886 9.48052 112.97 9.42731 113.036 9.37523C113.062 9.34919 113.115 9.29938 113.193 9.22805C113.273 9.1556 113.41 9.02087 113.607 8.82388C113.804 8.62689 114.086 8.3314 114.454 7.93742C114.794 7.55702 115.067 7.25813 115.271 7.04076C115.475 6.82452 115.577 6.64338 115.577 6.4996C115.577 6.39431 115.488 6.30601 115.311 6.23355C115.133 6.16109 114.894 6.1192 114.592 6.10562C114.578 6.05354 114.572 6.00033 114.572 5.94825V5.63352C114.572 5.58144 114.579 5.52823 114.592 5.47615C114.854 5.47615 115.186 5.48294 115.587 5.4954C115.988 5.50898 116.345 5.51464 116.66 5.51464C116.817 5.51464 117.044 5.51125 117.339 5.50445C117.635 5.49766 117.934 5.49426 118.236 5.49426H118.906C118.919 5.54634 118.929 5.59955 118.936 5.65163C118.942 5.70371 118.946 5.75692 118.946 5.809C118.946 5.86108 118.942 5.91089 118.936 5.95618C118.929 6.00259 118.919 6.05127 118.906 6.10449C118.224 6.11807 117.645 6.28563 117.173 6.60715C116.7 6.92868 116.247 7.30682 115.813 7.73929L114.395 9.15786L117.113 12.7433C117.402 13.1249 117.642 13.4226 117.832 13.64C118.022 13.8562 118.229 14.0113 118.452 14.103C118.675 14.1947 118.984 14.2536 119.378 14.2808C119.404 14.4653 119.404 14.668 119.378 14.891C119.207 14.891 118.955 14.8842 118.62 14.8718C118.285 14.8593 117.763 14.8525 117.054 14.8525H116.581C116.37 14.8525 116.173 14.8661 115.99 14.8921C115.99 14.7472 115.911 14.548 115.753 14.291C115.596 14.0351 115.47 13.8472 115.378 13.7294C115.339 13.6638 115.24 13.5223 115.083 13.306C114.926 13.0898 114.739 12.8328 114.521 12.5373C114.305 12.2418 114.084 11.9395 113.861 11.6316C113.638 11.3236 113.435 11.0508 113.251 10.8142C113.106 10.6172 112.972 10.4632 112.847 10.3511C112.722 10.2402 112.567 10.1836 112.384 10.1836V12.6267C112.384 13.1385 112.407 13.5064 112.453 13.7294C112.499 13.9525 112.61 14.094 112.788 14.1529C112.966 14.2117 113.238 14.2547 113.606 14.2808C113.632 14.4778 113.632 14.6816 113.606 14.891C113.264 14.891 112.906 14.8842 112.532 14.8718C112.158 14.8593 111.755 14.8525 111.321 14.8525C110.887 14.8525 110.487 14.8593 110.08 14.8718C109.673 14.8842 109.273 14.891 108.879 14.891L108.88 14.8921Z" fill="white"/>
<path id="Vector_12" d="M135.415 14.952C134.863 14.952 134.394 14.8139 134.006 14.5388C133.619 14.2626 133.169 13.7973 132.657 13.1406C132.118 13.8369 131.515 14.3622 130.844 14.7166C130.174 15.0709 129.433 15.2487 128.619 15.2487C127.805 15.2487 127.131 15.0947 126.481 14.7856C125.831 14.4766 125.312 14.0339 124.924 13.4554C124.537 12.878 124.344 12.1942 124.344 11.4062C124.344 10.7496 124.489 10.1552 124.777 9.62308C125.066 9.09097 125.45 8.62566 125.93 8.22489C126.409 7.82411 126.944 7.47994 127.535 7.19011C127.128 6.77009 126.787 6.33308 126.511 5.88023C126.234 5.42737 126.097 4.90546 126.097 4.31448C126.097 3.68388 126.258 3.14272 126.58 2.68987C126.901 2.23701 127.328 1.88605 127.86 1.63585C128.392 1.38678 128.973 1.26111 129.604 1.26111C130.141 1.26111 130.641 1.3596 131.1 1.5566C131.56 1.75359 131.931 2.04568 132.213 2.43287C132.495 2.82006 132.637 3.29669 132.637 3.86163C132.637 4.57035 132.393 5.1817 131.907 5.69343C131.422 6.20515 130.752 6.63197 129.898 6.97387C130.266 7.34182 130.663 7.75505 131.09 8.2147C131.517 8.67434 131.927 9.13399 132.322 9.59364C132.716 10.0533 133.063 10.4733 133.366 10.8548C134.271 9.4759 134.725 8.51698 134.725 7.97921C134.725 7.65089 134.575 7.44711 134.272 7.36899C133.97 7.28974 133.59 7.23766 133.13 7.21162C133.091 7.00218 133.091 6.79839 133.13 6.6014C133.471 6.6014 133.849 6.60819 134.262 6.62065C134.676 6.63423 135.126 6.63989 135.612 6.63989C136.071 6.63989 136.465 6.6331 136.794 6.62065C137.122 6.60819 137.437 6.6014 137.739 6.6014C137.779 6.79839 137.779 7.00218 137.739 7.21162C137.411 7.23766 137.125 7.28068 136.882 7.33955C136.639 7.39843 136.426 7.5139 136.241 7.68372C136.096 7.82864 135.916 8.07431 135.699 8.42188C135.483 8.77058 135.243 9.1872 134.98 9.67289C134.823 9.93555 134.648 10.2276 134.458 10.5492C134.268 10.8707 134.068 11.19 133.857 11.5047C134.369 12.1613 134.842 12.7161 135.276 13.1689C135.709 13.6218 136.162 13.8482 136.635 13.8482C136.78 13.8482 136.964 13.8222 137.187 13.769C137.41 13.7169 137.626 13.6376 137.836 13.5323C137.902 13.6116 137.951 13.7033 137.984 13.8086C138.016 13.9139 138.039 14.0056 138.053 14.0848C137.291 14.6634 136.411 14.952 135.413 14.952H135.415ZM132.144 12.4693C131.736 11.9304 131.333 11.4152 130.933 10.9228C130.532 10.4303 130.102 9.92536 129.642 9.40571C129.182 8.88719 128.65 8.32565 128.047 7.72108C127.548 8.00978 127.143 8.40376 126.835 8.90304C126.526 9.40231 126.372 10.0057 126.372 10.7156C126.372 11.6745 126.651 12.4489 127.21 13.0399C127.768 13.6308 128.513 13.9263 129.446 13.9263C130.024 13.9263 130.513 13.8052 130.913 13.5618C131.314 13.3184 131.724 12.955 132.145 12.4681L132.144 12.4693ZM129.407 6.48139C130.444 5.98212 130.963 5.14208 130.963 3.96012C130.963 3.36915 130.839 2.89592 130.589 2.54156C130.338 2.1872 129.978 2.00945 129.505 2.00945C129.071 2.00945 128.717 2.16342 128.441 2.4725C128.165 2.78157 128.028 3.20499 128.028 3.74275C128.028 4.28052 128.152 4.75036 128.402 5.19076C128.651 5.63116 128.987 6.06137 129.408 6.48139H129.407Z" fill="white"/>
<path id="Vector_13" d="M148.022 8.6483L147.511 8.58943V12.4308C147.511 12.8383 147.523 13.1599 147.55 13.3965C147.576 13.6331 147.645 13.8041 147.758 13.9082C147.868 14.0135 148.053 14.0894 148.309 14.1346C148.565 14.1811 148.923 14.2229 149.382 14.2626C149.422 14.4732 149.422 14.6826 149.382 14.8932C149.12 14.8932 148.804 14.8898 148.437 14.883C148.069 14.8762 147.701 14.8705 147.334 14.8637C146.966 14.8569 146.657 14.8535 146.408 14.8535C146.171 14.8535 145.863 14.8569 145.482 14.8637C145.1 14.8705 144.72 14.8762 144.34 14.883C143.958 14.8898 143.637 14.8932 143.374 14.8932C143.334 14.6962 143.334 14.4867 143.374 14.2626C144.004 14.2105 144.457 14.1539 144.734 14.095C145.01 14.0361 145.18 13.9048 145.245 13.701C145.311 13.4972 145.344 13.1599 145.344 12.6866V3.50613C145.344 2.96724 145.308 2.58005 145.235 2.34343C145.163 2.10681 144.989 1.94944 144.713 1.8702C144.437 1.79095 143.991 1.73207 143.374 1.69245C143.334 1.49546 143.334 1.28601 143.374 1.06185C143.623 1.06185 143.948 1.06525 144.349 1.07204C144.749 1.07883 145.143 1.08562 145.531 1.09128C145.918 1.09808 146.203 1.10147 146.388 1.10147C146.624 1.10147 146.93 1.09808 147.304 1.09128C147.678 1.08449 148.052 1.07543 148.427 1.06185C148.801 1.0494 149.093 1.0426 149.303 1.0426C150.131 1.0426 150.901 1.15468 151.618 1.37772C152.334 1.60075 152.911 1.96529 153.351 2.47136C153.792 2.97743 154.011 3.65671 154.011 4.51034C154.011 5.36397 153.759 6.09986 153.253 6.7565C152.747 7.41314 151.95 7.90562 150.86 8.23394V8.29281C151.057 8.45018 151.28 8.71283 151.53 9.08078L153.598 12.0753C153.94 12.561 154.225 12.9425 154.455 13.2176C154.685 13.4939 154.905 13.6999 155.115 13.838C155.325 13.9761 155.568 14.0712 155.844 14.1233C156.121 14.1754 156.468 14.2218 156.888 14.2614C156.928 14.472 156.928 14.6815 156.888 14.892C156.638 14.892 156.33 14.8886 155.962 14.8819C155.594 14.8751 155.24 14.8694 154.898 14.8626C154.556 14.8558 154.281 14.8524 154.07 14.8524C153.86 14.8524 153.676 14.8558 153.519 14.8626C153.362 14.8694 153.177 14.8728 152.968 14.8728L149.323 9.49514C149.1 9.15324 148.903 8.9336 148.732 8.8351C148.561 8.73661 148.325 8.67434 148.024 8.6483H148.022ZM147.51 7.78109C147.681 7.80712 147.831 7.8275 147.962 7.83996C148.094 7.85354 148.218 7.8592 148.337 7.8592C149.362 7.8592 150.172 7.59655 150.77 7.07123C151.368 6.54592 151.667 5.77154 151.667 4.74696C151.667 3.81408 151.408 3.09856 150.889 2.59929C150.371 2.10002 149.605 1.85095 148.594 1.85095C148.463 1.85095 148.302 1.85774 148.112 1.8702C147.922 1.88378 147.721 1.90303 147.511 1.92907V7.77995L147.51 7.78109Z" fill="white"/>
<path id="Vector_14" d="M161.24 15.1095C160.307 15.1095 159.519 14.8932 158.876 14.4596C158.233 14.026 157.744 13.4452 157.409 12.7161C157.074 11.987 156.906 11.1832 156.906 10.3036C156.906 9.42388 157.081 8.55666 157.428 7.78228C157.776 7.0079 158.285 6.3807 158.956 5.90067C159.626 5.42178 160.44 5.18176 161.399 5.18176C162.555 5.18176 163.457 5.52706 164.107 6.21654C164.757 6.90601 165.082 7.79587 165.082 8.88612C165.082 9.01744 165.078 9.13292 165.071 9.23142C165.065 9.32991 165.054 9.41256 165.042 9.47709L158.837 9.41822V9.55634C158.837 10.8436 159.132 11.8546 159.723 12.5905C160.314 13.3264 161.142 13.6932 162.205 13.6932C163.098 13.6932 163.978 13.4045 164.845 12.826C164.976 12.9833 165.075 13.135 165.14 13.2788C164.024 14.5004 162.724 15.1106 161.24 15.1106V15.1095ZM158.896 8.68686L162.974 8.60761C162.986 8.58157 162.993 8.54534 162.993 8.49893V8.41062C162.993 7.7019 162.839 7.11092 162.53 6.63769C162.221 6.16446 161.764 5.92897 161.161 5.92897C160.596 5.92897 160.104 6.1588 159.684 6.61845C159.264 7.07809 159.001 7.76757 158.896 8.68686Z" fill="white"/>
<path id="Vector_15" d="M174.122 15.1287L173.808 14.9905L173.728 13.6308C173.269 14.1301 172.799 14.5015 172.32 14.7437C171.84 14.9871 171.312 15.1083 170.734 15.1083C169.92 15.1083 169.207 14.8887 168.596 14.4483C167.986 14.0078 167.516 13.4339 167.188 12.724C166.86 12.0153 166.696 11.2466 166.696 10.419C166.696 9.46005 166.903 8.58717 167.316 7.79921C167.729 7.01124 168.313 6.37724 169.07 5.89835C169.825 5.41945 170.708 5.17944 171.719 5.17944C172.021 5.17944 172.336 5.20208 172.664 5.2485C172.993 5.29492 173.334 5.36964 173.689 5.47493V2.95366C173.689 2.54722 173.649 2.24154 173.571 2.03776C173.492 1.83397 173.338 1.69019 173.108 1.60415C172.878 1.51924 172.533 1.45697 172.074 1.41735C172.035 1.24639 172.035 1.06978 172.074 0.885243C172.6 0.819579 173.139 0.717687 173.69 0.579566C174.241 0.441445 174.806 0.24785 175.384 -0.0012207L175.719 0.116522C175.705 0.405217 175.696 0.733536 175.689 1.10148C175.683 1.46943 175.679 1.8702 175.679 2.30268V12.073C175.679 12.5723 175.698 12.947 175.738 13.1961C175.778 13.4452 175.895 13.6195 176.092 13.718C176.289 13.8165 176.624 13.9048 177.097 13.9841C177.136 14.155 177.136 14.3316 177.097 14.5162C176.571 14.5954 176.06 14.6803 175.56 14.772C175.061 14.8637 174.582 14.9815 174.122 15.1264V15.1287ZM173.709 7.15049C173.144 6.37611 172.403 5.98779 171.483 5.98779C170.564 5.98779 169.894 6.3195 169.434 6.98294C168.975 7.64637 168.745 8.56227 168.745 9.73063C168.745 10.4133 168.836 11.07 169.021 11.7006C169.204 12.3312 169.507 12.8497 169.927 13.2572C170.347 13.6648 170.905 13.8675 171.601 13.8675C172.481 13.8675 173.184 13.4871 173.709 12.7251V7.15049Z" fill="white"/>
</g>
<defs>
<clipPath id="clip0_99_559">
<rect width="176.198" height="19.8962" fill="white" transform="translate(0.929443)"/>
</clipPath>
</defs>
</svg>
