<svg width="37" height="36" viewBox="0 0 37 36" fill="none" xmlns="http://www.w3.org/2000/svg">
<g id="clock-solid 1" clip-path="url(#clip0_99_413)">
<path id="Vector" d="M18.4883 0C23.2622 0 27.8405 1.89642 31.2162 5.27208C34.5919 8.64773 36.4883 13.2261 36.4883 18C36.4883 22.7739 34.5919 27.3523 31.2162 30.7279C27.8405 34.1036 23.2622 36 18.4883 36C13.7144 36 9.13601 34.1036 5.76036 30.7279C2.3847 27.3523 0.488281 22.7739 0.488281 18C0.488281 13.2261 2.3847 8.64773 5.76036 5.27208C9.13601 1.89642 13.7144 0 18.4883 0ZM16.8008 8.4375V18C16.8008 18.5625 17.082 19.0898 17.5531 19.4062L24.3031 23.9062C25.0766 24.4266 26.1242 24.2156 26.6445 23.4352C27.1648 22.6547 26.9539 21.6141 26.1734 21.0938L20.1758 17.1V8.4375C20.1758 7.50234 19.4234 6.75 18.4883 6.75C17.5531 6.75 16.8008 7.50234 16.8008 8.4375Z" fill="#CA1B2E"/>
</g>
<defs>
<clipPath id="clip0_99_413">
<rect width="36" height="36" fill="white" transform="translate(0.488281)"/>
</clipPath>
</defs>
</svg>
