<svg width="37" height="37" viewBox="0 0 37 37" fill="none" xmlns="http://www.w3.org/2000/svg">
<g id="phone-solid 1" clip-path="url(#clip0_99_409)">
<path id="Vector" d="M12.0828 1.74681C11.5414 0.426095 10.1141 -0.276863 8.75 0.0994682L2.5625 1.80361C1.33906 2.14444 0.488281 3.26633 0.488281 4.54444C0.488281 22.1113 14.593 36.3551 31.9883 36.3551C33.2539 36.3551 34.3648 35.4959 34.7023 34.2604L36.3898 28.0119C36.7625 26.6344 36.0664 25.193 34.7586 24.6462L28.0086 21.806C26.8625 21.3231 25.5336 21.6569 24.7531 22.6296L21.9125 26.1302C16.9625 23.7657 12.9547 19.7184 10.6133 14.7196L14.0797 11.858C15.043 11.0628 15.3734 9.72787 14.8953 8.57047L12.0828 1.75391V1.74681Z" fill="#CA1B2E"/>
</g>
<defs>
<clipPath id="clip0_99_409">
<rect width="36" height="36.355" fill="white" transform="translate(0.488281)"/>
</clipPath>
</defs>
</svg>
