<svg width="27" height="36" viewBox="0 0 27 36" fill="none" xmlns="http://www.w3.org/2000/svg">
<path id="Vector" d="M15.1533 35.0696C18.7572 30.5595 26.9766 19.6283 26.9766 13.4883C26.9766 6.04165 20.935 0 13.4883 0C6.04165 0 0 6.04165 0 13.4883C0 19.6283 8.21945 30.5595 11.8234 35.0696C12.6875 36.1445 14.2892 36.1445 15.1533 35.0696ZM13.4883 8.99222C14.6808 8.99222 15.8244 9.46591 16.6676 10.3091C17.5107 11.1523 17.9844 12.2959 17.9844 13.4883C17.9844 14.6808 17.5107 15.8244 16.6676 16.6676C15.8244 17.5107 14.6808 17.9844 13.4883 17.9844C12.2959 17.9844 11.1523 17.5107 10.3091 16.6676C9.46591 15.8244 8.99222 14.6808 8.99222 13.4883C8.99222 12.2959 9.46591 11.1523 10.3091 10.3091C11.1523 9.46591 12.2959 8.99222 13.4883 8.99222Z" fill="#CA1B2E"/>
</svg>
