<svg width="37" height="36" viewBox="0 0 37 36" fill="none" xmlns="http://www.w3.org/2000/svg">
<path id="Vector" d="M31.0963 5.23125C27.7294 1.85625 23.2454 0 18.4802 0C8.64453 0 0.64096 8.00357 0.64096 17.8393C0.64096 20.9812 1.4606 24.0509 3.01953 26.7589L0.488281 36L9.94632 33.517C12.5499 34.9393 15.4829 35.6866 18.4722 35.6866H18.4802C28.3079 35.6866 36.4883 27.683 36.4883 17.8473C36.4883 13.0821 34.4633 8.60625 31.0963 5.23125ZM18.4802 32.6813C15.8124 32.6813 13.2008 31.9661 10.9267 30.6161L10.3883 30.2946L4.77935 31.7652L6.274 26.2929L5.92042 25.7304C4.43382 23.3679 3.65435 20.6437 3.65435 17.8393C3.65435 9.66696 10.3079 3.01339 18.4883 3.01339C22.4499 3.01339 26.1704 4.55625 28.9669 7.36071C31.7633 10.1652 33.4829 13.8857 33.4749 17.8473C33.4749 26.0277 26.6526 32.6813 18.4802 32.6813ZM26.6124 21.5759C26.1704 21.3509 23.9767 20.2741 23.5669 20.1295C23.157 19.9768 22.8597 19.9045 22.5624 20.3545C22.2651 20.8045 21.4133 21.8009 21.1481 22.1063C20.891 22.4036 20.6258 22.4438 20.1838 22.2188C17.5642 20.9089 15.8445 19.8804 14.1169 16.9152C13.6588 16.1277 14.5749 16.1839 15.4267 14.4804C15.5713 14.183 15.499 13.9259 15.3865 13.7009C15.274 13.4759 14.382 11.2821 14.0124 10.3902C13.6508 9.52232 13.2811 9.64286 13.0079 9.62679C12.7508 9.61071 12.4535 9.61071 12.1561 9.61071C11.8588 9.61071 11.3767 9.72321 10.9669 10.1652C10.557 10.6152 9.40792 11.692 9.40792 13.8857C9.40792 16.0795 11.007 18.2009 11.224 18.4982C11.449 18.7955 14.366 23.2955 18.8419 25.2321C21.6704 26.4536 22.7794 26.558 24.1936 26.3491C25.0535 26.2205 26.8294 25.2723 27.199 24.2277C27.5686 23.183 27.5686 22.2911 27.4561 22.1063C27.3517 21.9054 27.0544 21.7929 26.6124 21.5759Z" fill="#CA1B2E"/>
</svg>
