<svg width="94" height="101" viewBox="0 0 94 101" fill="none" xmlns="http://www.w3.org/2000/svg">
<g id="_x2018_&#195;&#131;&#194;&#171;&#195;&#131;&#194;&#174;&#195;&#131;&#194;&#169;_x5F_1" clip-path="url(#clip0_99_332)">
<path id="Vector" d="M72.0031 6.92507C71.7143 6.65396 71.3253 6.51841 70.9305 6.54198C61.9013 7.13135 53.9036 4.97426 47.8095 0.300548C47.2967 -0.0943308 46.5836 -0.0943308 46.0708 0.300548C39.9708 4.97426 31.979 7.13135 22.9498 6.54198C22.5608 6.51841 22.1659 6.65396 21.8772 6.92507C21.5884 7.19618 21.4233 7.57338 21.4233 7.96826C21.4233 22.9913 23.0736 33.2758 26.6275 40.3306C30.7059 48.4462 37.3481 52.3891 46.9431 52.3891C56.538 52.3891 63.1802 48.4403 67.2587 40.3306C70.8067 33.2758 72.4569 22.9913 72.4569 7.96826C72.4569 7.57338 72.2919 7.19618 72.0031 6.92507ZM60.9701 21.0523L45.9706 38.2206C45.6995 38.533 45.3046 38.7098 44.898 38.7098C44.4913 38.7098 44.0905 38.533 43.8194 38.2206L35.9572 29.2151C35.4386 28.6198 35.4975 27.7181 36.0928 27.1935C36.688 26.6749 37.5898 26.7338 38.1084 27.3291L44.898 35.097L58.8189 19.1604C59.3376 18.5651 60.2452 18.5062 60.8404 19.0248C61.4357 19.5435 61.4946 20.4452 60.976 21.0405L60.9701 21.0523Z" fill="black"/>
<g id="Group">
<path id="Vector_2" d="M73.3589 74.6262L72.6634 74.526C71.2843 74.3256 69.8757 74.2136 68.4789 74.19H67.9426L66.9701 54.01C66.9348 53.3145 67.253 52.8371 67.5182 52.5542C67.9603 52.0886 68.6145 51.8234 69.3217 51.8234C70.0289 51.8234 70.6773 52.0651 71.19 52.513C71.691 52.9432 71.9857 53.509 72.0269 54.1102L73.3707 74.632L73.3589 74.6262Z" fill="black"/>
<path id="Vector_3" d="M66.2271 74.2313L65.6731 74.2725C64.2881 74.3786 62.8913 74.579 61.5239 74.8619L60.852 75.0033L60.3628 59.4086C60.3393 58.6719 60.6811 58.165 60.964 57.8644C61.4296 57.3871 62.1015 57.1159 62.8087 57.1159C63.516 57.1159 64.1702 57.3694 64.6888 57.8232C65.1839 58.2652 65.4786 58.8546 65.5081 59.4734L66.2212 74.2254L66.2271 74.2313Z" fill="black"/>
<path id="Vector_4" d="M93.7332 72.6636C93.1733 74.9091 92.2892 77.0072 91.358 79.2291C90.9337 80.2487 90.4858 81.3037 90.0791 82.3823C89.7019 83.3606 89.3424 84.4156 88.9946 85.4293C87.3974 90.0736 85.594 95.3307 81.38 97.8945C78.6217 99.5801 75.392 100.47 72.0561 100.47C68.7203 100.47 65.6025 99.5742 62.7559 97.8709C59.9446 96.1912 57.6283 93.7984 56.0547 90.9635C54.6461 88.4292 53.8799 85.5943 53.8387 82.7772L53.6206 67.1412C53.6088 66.4987 53.8682 65.8917 54.3397 65.4379C54.8229 64.9723 55.4771 64.7188 56.1785 64.7188C57.6342 64.7188 58.8483 65.821 58.8896 67.1824L59.1489 75.4572L58.6421 75.6104C58.4004 75.6811 58.1588 75.7577 57.923 75.8344C57.705 75.9051 57.5282 76.0583 57.428 76.2646C57.3278 76.4709 57.3042 76.7007 57.3808 76.9188C57.4928 77.2724 57.8228 77.5082 58.1941 77.5082C58.2825 77.5082 58.3768 77.4964 58.4594 77.461C61.3355 76.518 64.2588 75.9994 67.1467 75.911C67.4355 75.9051 67.7243 75.8992 68.0131 75.8992C70.0228 75.8992 72.0797 76.1055 74.0895 76.518L74.1779 76.5357C75.0737 76.7184 75.9872 76.9424 76.889 77.2076C76.9715 77.2312 77.0481 77.243 77.1306 77.243C77.5078 77.243 77.8496 76.9895 77.9557 76.6241C78.0854 76.1703 77.8261 75.6929 77.3723 75.5574C76.7829 75.3864 76.1582 75.2214 75.5216 75.0682L75.1091 74.9739L74.0305 58.4833C73.9952 57.888 74.2073 57.3281 74.6258 56.9156C75.0678 56.4853 75.6867 56.2437 76.3644 56.2437C77.8025 56.2437 79.0579 57.3104 79.1639 58.613L81.0499 81.4982L80.9792 81.6397C80.6433 82.341 80.3427 82.7713 80.0303 82.9893L79.8123 83.1426L79.5529 83.0718C79.3349 83.0129 79.0225 82.895 78.7455 82.7889C78.4803 82.6887 78.2327 82.5944 78.0265 82.5414C76.7004 82.2055 75.4097 82.0404 74.1897 82.0404C71.9736 82.0404 69.9108 82.5944 68.0602 83.6907C67.6535 83.9323 67.518 84.4628 67.7596 84.8635C67.9129 85.1229 68.1958 85.2879 68.4963 85.2879C68.6496 85.2879 68.7969 85.2466 68.9325 85.17C70.5061 84.2388 72.2801 83.7673 74.2073 83.7673C75.2859 83.7673 76.4352 83.9146 77.608 84.2152C77.7023 84.2388 77.8673 84.2977 78.1443 84.4038C78.716 84.616 79.2995 84.8399 79.8123 84.8399C79.9714 84.8399 80.1128 84.8223 80.2484 84.7751C81.7808 84.2977 82.4703 82.6062 83.0302 81.2212C83.1304 80.9737 83.2247 80.7379 83.319 80.5375C83.5194 80.1014 83.7257 79.624 83.9437 79.1172L83.9555 79.0877C85.8061 74.8089 87.6273 71.2667 91.1046 71.2667C91.1517 71.2667 91.1989 71.2667 91.2519 71.2667C92.4189 71.3021 93.4444 71.6616 93.6919 72.1213L93.7391 72.2156L93.7509 72.3158C93.7627 72.416 93.7509 72.5339 93.7214 72.6694L93.7332 72.6636Z" fill="black"/>
<path id="Vector_5" d="M20.4039 74.6262L21.0993 74.526C22.4785 74.3256 23.8871 74.2136 25.2839 74.19H25.8202L26.7927 54.01C26.828 53.3145 26.5098 52.8371 26.2445 52.5542C25.8025 52.0886 25.1483 51.8234 24.4411 51.8234C23.7338 51.8234 23.0855 52.0651 22.5728 52.513C22.0718 52.9432 21.7771 53.509 21.7359 54.1102L20.3921 74.632L20.4039 74.6262Z" fill="black"/>
<path id="Vector_6" d="M27.5411 74.2313L28.0951 74.2725C29.4802 74.3786 30.877 74.579 32.2443 74.8619L32.9162 75.0033L33.4054 59.4086C33.4289 58.6719 33.0871 58.165 32.8042 57.8644C32.3386 57.3871 31.6667 57.1159 30.9595 57.1159C30.2522 57.1159 29.598 57.3694 29.0794 57.8232C28.5843 58.2652 28.2896 58.8546 28.2602 59.4734L27.547 74.2254L27.5411 74.2313Z" fill="black"/>
<path id="Vector_7" d="M0.0350155 72.6636C0.594918 74.9091 1.47897 77.0072 2.41018 79.2291C2.83453 80.2487 3.28245 81.3037 3.68911 82.3823C4.06631 83.3606 4.42583 84.4156 4.77356 85.4293C6.37075 90.0736 8.17422 95.3307 12.3882 97.8945C15.1465 99.5801 18.3762 100.47 21.7121 100.47C25.0479 100.47 28.1657 99.5742 31.0123 97.8709C33.8236 96.1912 36.1399 93.7984 37.7135 90.9635C39.1221 88.4292 39.8883 85.5943 39.9295 82.7772L40.1476 67.1412C40.1594 66.4987 39.9 65.8917 39.4285 65.4379C38.9453 64.9723 38.2911 64.7188 37.5897 64.7188C36.134 64.7188 34.9199 65.821 34.8786 67.1824L34.6193 75.4572L35.1261 75.6104C35.3678 75.6811 35.6094 75.7577 35.8452 75.8344C36.0632 75.9051 36.2401 76.0583 36.3402 76.2646C36.4404 76.4709 36.464 76.7007 36.3874 76.9188C36.2754 77.2724 35.9454 77.5082 35.5741 77.5082C35.4857 77.5082 35.3914 77.4964 35.3088 77.461C32.4327 76.518 29.5094 75.9994 26.6215 75.911C26.3327 75.9051 26.0439 75.8992 25.7551 75.8992C23.7454 75.8992 21.6885 76.1055 19.6787 76.518L19.5903 76.5357C18.6945 76.7184 17.781 76.9424 16.8792 77.2076C16.7967 77.2312 16.7201 77.243 16.6376 77.243C16.2604 77.243 15.9186 76.9895 15.8125 76.6241C15.6828 76.1703 15.9421 75.6929 16.3959 75.5574C16.9853 75.3864 17.61 75.2214 18.2466 75.0682L18.6591 74.9739L19.7377 58.4833C19.773 57.888 19.5609 57.3281 19.1424 56.9156C18.7004 56.4853 18.0815 56.2437 17.4038 56.2437C15.9657 56.2437 14.7103 57.3104 14.6043 58.613L12.7183 81.4982L12.789 81.6397C13.1249 82.341 13.4255 82.7713 13.7379 82.9893L13.9559 83.1426L14.2153 83.0718C14.4333 83.0129 14.7457 82.895 15.0227 82.7889C15.2879 82.6887 15.5355 82.5944 15.7417 82.5414C17.0678 82.2055 18.3585 82.0404 19.5785 82.0404C21.7946 82.0404 23.8574 82.5944 25.708 83.6907C26.1147 83.9323 26.2502 84.4628 26.0086 84.8635C25.8553 85.1229 25.5724 85.2879 25.2719 85.2879C25.1186 85.2879 24.9713 85.2466 24.8357 85.17C23.2621 84.2388 21.4881 83.7673 19.5609 83.7673C18.4823 83.7673 17.333 83.9146 16.1602 84.2152C16.0659 84.2388 15.9009 84.2977 15.6239 84.4038C15.0522 84.616 14.4687 84.8399 13.9559 84.8399C13.7968 84.8399 13.6554 84.8223 13.5198 84.7751C11.9875 84.2977 11.2979 82.6062 10.738 81.2212C10.6378 80.9737 10.5435 80.7379 10.4492 80.5375C10.2488 80.1014 10.0425 79.624 9.82446 79.1172L9.81267 79.0877C7.96205 74.8089 6.14089 71.2667 2.66361 71.2667C2.61646 71.2667 2.56931 71.2667 2.51627 71.2667C1.34931 71.3021 0.323807 71.6616 0.0762714 72.1213L0.0291218 72.2156L0.0173344 72.3158C0.00554695 72.416 0.0173344 72.5339 0.0468029 72.6694L0.0350155 72.6636Z" fill="black"/>
</g>
</g>
<defs>
<clipPath id="clip0_99_332">
<rect width="93.7689" height="100.47" fill="white"/>
</clipPath>
</defs>
</svg>
