<svg width="85" height="107" viewBox="0 0 85 107" fill="none" xmlns="http://www.w3.org/2000/svg">
<g id="_x2018_&#195;&#131;&#194;&#171;&#195;&#131;&#194;&#174;&#195;&#131;&#194;&#169;_x5F_1" clip-path="url(#clip0_99_327)">
<path id="Vector" d="M36.0031 7.9693C36.0031 8.8095 35.3197 9.49294 34.4795 9.49294C33.6393 9.49294 32.9558 8.8095 32.9558 7.9693C32.9558 7.1291 33.6393 6.44565 34.4795 6.44565C35.3197 6.44565 36.0031 7.1291 36.0031 7.9693Z" fill="black"/>
<path id="Vector_2" d="M50.7317 10.0824H44.5556C44.0666 10.0824 43.659 9.6936 43.6465 9.20453V9.16691C43.6465 4.11317 39.527 0.00623131 34.4795 0.00623131C29.4321 0.00623131 25.3126 4.11945 25.3126 9.17318C25.3126 9.29858 25.2875 9.41772 25.2373 9.53058C25.0931 9.86917 24.7671 10.0886 24.3971 10.0886H18.2273C17.337 10.0886 16.6096 10.816 16.6096 11.7063V18.986C16.6096 19.8763 17.3307 20.6037 18.2273 20.6037H50.7317C51.6221 20.6037 52.3494 19.8763 52.3494 18.986V11.7063C52.3494 10.816 51.6221 10.0886 50.7317 10.0886V10.0824ZM34.4795 12.534C31.9652 12.534 29.9149 10.4836 29.9149 7.96931C29.9149 5.45499 31.9652 3.40465 34.4795 3.40465C36.9939 3.40465 39.0442 5.45499 39.0442 7.96931C39.0442 10.4836 36.9939 12.534 34.4795 12.534Z" fill="black"/>
<path id="Vector_3" d="M65.6231 16.3526H54.1801V18.9798C54.1801 20.8796 52.6313 22.4221 50.7378 22.4221H18.2333C16.3335 22.4221 14.791 20.8733 14.791 18.9798V16.3526H3.34174C1.49832 16.3526 -0.000244141 17.8511 -0.000244141 19.6946V95.2561C-0.000244141 97.0995 1.49832 98.598 3.34174 98.598H42.7621L42.2856 97.7014C37.583 88.848 36.9811 75.944 36.9811 65.6986C36.9811 65.4478 37.0877 65.2033 37.2695 65.034C37.4388 64.8772 37.6645 64.7894 37.9028 64.7894C37.9216 64.7894 37.9404 64.7894 37.9592 64.7894C38.9123 64.8521 39.8779 64.8835 40.8121 64.8835C48.6185 64.8835 55.5909 62.7015 60.9894 58.5632C61.1525 58.4378 61.3406 58.3751 61.5412 58.3751C61.7419 58.3751 61.9362 58.4378 62.0993 58.5632C63.9113 59.9552 65.9366 61.1402 68.1061 62.0933L68.9588 62.4632V19.6946C68.9588 17.8511 67.4602 16.3526 65.6168 16.3526H65.6231ZM32.4666 83.1672H11.9569C11.1167 83.1672 10.4333 82.4838 10.4333 81.6436C10.4333 80.8034 11.1167 80.1199 11.9569 80.1199H32.4728C33.313 80.1199 33.9965 80.7971 33.9965 81.6436C33.9965 82.4901 33.313 83.1672 32.4728 83.1672H32.4666ZM32.4666 68.3634H11.9569C11.1167 68.3634 10.4333 67.68 10.4333 66.8398C10.4333 65.9996 11.1167 65.3161 11.9569 65.3161H32.4728C33.313 65.3161 33.9965 65.9933 33.9965 66.8398C33.9965 67.6862 33.313 68.3634 32.4728 68.3634H32.4666ZM55.0767 53.5533H11.9569C11.1167 53.5533 10.4333 52.8762 10.4333 52.0297C10.4333 51.1832 11.1167 50.506 11.9569 50.506H55.083C55.9232 50.506 56.6066 51.1895 56.6066 52.0297C56.6066 52.8699 55.9232 53.5533 55.083 53.5533H55.0767ZM55.0767 38.7433H11.9569C11.1167 38.7433 10.4333 38.0598 10.4333 37.2196C10.4333 36.3794 11.1167 35.696 11.9569 35.696H55.083C55.9232 35.696 56.6066 36.3794 56.6066 37.2196C56.6066 38.0598 55.9232 38.7433 55.083 38.7433H55.0767Z" fill="black"/>
<path id="Vector_4" d="M83.6499 66.6893C83.1922 66.7018 82.7345 66.7081 82.283 66.7081C74.5143 66.7081 67.4667 64.6264 61.8988 60.6762L61.5477 60.4254L61.1965 60.6762C55.6287 64.6201 48.5873 66.7081 40.8248 66.7081C40.3671 66.7081 39.9031 66.7018 39.4454 66.6893L38.8121 66.6705V67.3038C38.9375 81.5997 40.6681 91.2056 44.2609 97.5447C47.8662 103.909 53.5156 107 61.5414 107C69.5672 107 75.2229 103.909 78.8282 97.5447C82.421 91.2056 84.1515 81.5934 84.2707 67.3038V66.6705L83.6437 66.6893H83.6499ZM75.411 78.6214L60.6824 95.4818C60.394 95.8141 59.9739 96.0022 59.535 96.0022C59.096 96.0022 58.6822 95.8141 58.3938 95.4818L50.669 86.6409C50.1172 86.0076 50.1799 85.0483 50.8132 84.4902C51.4465 83.9385 52.4058 84.0012 52.9638 84.6344L59.5412 92.1649L73.1224 76.6212C73.6741 75.9879 74.6397 75.9189 75.273 76.477C75.9063 77.0288 75.969 77.9944 75.4172 78.6214H75.411Z" fill="black"/>
</g>
<defs>
<clipPath id="clip0_99_327">
<rect width="84.2833" height="107" fill="white"/>
</clipPath>
</defs>
</svg>
