<svg width="108" height="95" viewBox="0 0 108 95" fill="none" xmlns="http://www.w3.org/2000/svg">
<g id="_x2018_&#195;&#131;&#194;&#171;&#195;&#131;&#194;&#174;&#195;&#131;&#194;&#169;_x5F_1" clip-path="url(#clip0_99_313)">
<path id="Vector" d="M23.2521 86.1655V92.5428C23.2521 93.7029 22.3053 94.6498 21.1452 94.6498H13.0811C11.921 94.6498 10.9741 93.7029 10.9741 92.5428V86.1655H23.2584H23.2521Z" fill="black"/>
<path id="Vector_2" d="M78.9292 86.1655V92.5428C78.9292 93.7029 77.9886 94.6498 76.8223 94.6498H68.7582C67.5981 94.6498 66.6512 93.7029 66.6512 92.5428V86.1655H78.9292Z" fill="black"/>
<path id="Vector_3" d="M62.0233 53.6019C59.5463 51.4761 57.4143 48.6856 55.7024 45.3057C54.5925 43.111 53.6268 40.6278 52.8304 37.9189L52.7113 37.4987L52.2723 37.4799C50.4664 37.4109 48.6479 37.3608 46.8607 37.342C46.2274 37.3357 45.5941 37.3294 44.967 37.3294H44.8917C38.1131 37.342 30.8015 37.7433 23.747 38.4707L23.4146 38.502L23.2641 38.803C20.5928 44.2084 18.4796 48.8299 17.5014 54.9438L17.376 55.7402L18.1786 55.6461C22.9945 55.0817 27.9045 54.6553 32.7768 54.392H32.8207L32.8646 54.3794C33.0903 54.3669 33.3161 54.3606 33.5418 54.3481L34.0121 54.3293C34.4761 54.3042 34.9402 54.2854 35.4042 54.2603C35.8557 54.2415 36.3134 54.2227 36.7649 54.2101C37.4798 54.185 38.1884 54.1599 38.897 54.1411H39.0036C41.0604 54.0847 42.9227 54.0596 44.7099 54.0596H45.1802C48.002 54.0596 50.9241 54.1223 53.8588 54.2352L54.3103 54.254C55.0314 54.2854 55.7588 54.323 56.48 54.3543L57.0067 54.3794H57.0631C58.612 54.4672 60.1295 54.5675 61.578 54.6741L63.4279 54.8121L62.0233 53.6081V53.6019ZM29.0395 51.2817C28.7573 51.52 28.4124 51.6391 28.0612 51.6391C27.6285 51.6391 27.1959 51.451 26.8949 51.0936C26.3556 50.454 26.4371 49.4883 27.083 48.949L36.9593 40.6592C37.6052 40.1199 38.5646 40.2014 39.1039 40.8473C39.6432 41.4869 39.5554 42.4526 38.9158 42.9919L29.0395 51.2817ZM43.1736 47.1368L38.9158 50.7111C38.6273 50.9494 38.2824 51.0685 37.9376 51.0685C37.5049 51.0685 37.0722 50.8804 36.7712 50.523C36.2319 49.8833 36.3134 48.9177 36.9593 48.3784L41.2171 44.8041C41.8567 44.2648 42.8224 44.3463 43.3617 44.9922C43.901 45.6318 43.8195 46.5912 43.1736 47.1368Z" fill="black"/>
<path id="Vector_4" d="M79.6501 8.96712C85.5633 12.4348 92.5802 14.4853 100.08 14.9368C100.067 15.4071 100.042 15.8711 100.024 16.3352C100.024 16.4292 100.017 16.517 100.011 16.6048C99.9922 17.0124 99.9734 17.4137 99.9483 17.8088C99.9483 17.8464 99.9483 17.884 99.9483 17.9154C99.1143 32.9525 96.1545 40.9351 92.2604 45.149C92.1852 45.2305 92.1162 45.3057 92.0409 45.381C92.0221 45.3998 92.0096 45.4186 91.997 45.4311C89.0373 48.4223 85.1181 49.7516 79.6501 49.7516C74.182 49.7516 70.2628 48.4223 67.3031 45.4311C67.2843 45.4186 67.2717 45.3998 67.2592 45.3873C67.1839 45.312 67.1087 45.2305 67.0334 45.1552C63.1394 40.9413 60.1859 32.9588 59.3456 17.9217C59.3456 17.884 59.3456 17.8464 59.3456 17.8088C59.3268 17.4137 59.3017 17.0187 59.2892 16.6111C59.2892 16.517 59.2829 16.4292 59.2766 16.3414C59.2578 15.8837 59.239 15.4259 59.2264 14.9619C59.2264 14.9619 59.2264 14.9556 59.2264 14.9493C62.506 14.7487 65.7041 14.247 68.7453 13.4507C69.178 13.3378 69.6107 13.2249 70.0434 13.0932C70.8962 12.8424 71.749 12.5665 72.5767 12.2718C75.0725 11.3751 77.4428 10.2777 79.6626 8.97339L79.6501 8.96712Z" fill="black"/>
<path id="Vector_5" d="M107.367 7.71927C106.602 7.74435 105.925 7.75689 105.298 7.75689C95.6407 7.75689 86.8931 5.16083 80.0079 0.250885L79.6567 5.72205e-05L79.3056 0.250885C72.4141 5.16083 63.6665 7.75689 54.0096 7.75689C53.3261 7.75689 52.6363 7.74435 51.9466 7.71927L51.3132 7.69419V8.32753C51.3697 16.6362 51.8713 23.5716 52.8558 29.5287C53.0251 30.5885 53.2195 31.6294 53.4265 32.6264C53.6083 33.5169 53.8152 34.4136 54.0347 35.2977C54.3043 36.37 54.5928 37.4172 54.9126 38.4268C57.5588 46.8546 61.7727 52.3352 67.7863 55.1821L67.9117 55.2385C70.05 56.2356 72.3702 56.894 75.0102 57.2514C76.4775 57.4521 78.0452 57.5524 79.6693 57.5524C80.359 57.5524 81.0175 57.5399 81.632 57.5022C85.8459 57.2828 89.3951 56.3672 92.4928 54.7055C103.04 49.0431 107.831 34.7397 108.013 8.3338V7.70046L107.386 7.71927H107.367ZM102.89 15.0497C102.89 15.1563 102.883 15.2566 102.877 15.3632C102.865 15.7144 102.852 16.0718 102.833 16.423C102.827 16.6675 102.808 16.9184 102.796 17.1629C102.796 17.351 102.783 17.5454 102.77 17.7398C102.651 20.0412 102.476 22.2296 102.263 24.2613C102.263 24.2801 102.25 24.3052 102.25 24.3303C101.41 32.0433 99.8609 38.0192 97.5721 42.3899C97.5721 42.4024 97.5658 42.415 97.5595 42.4338C94.1671 48.8487 89.2446 52.0028 81.7511 52.4857C81.726 52.4857 81.6947 52.4857 81.6633 52.4857C81.4752 52.492 81.2871 52.5045 81.099 52.5108C80.9987 52.5108 80.892 52.517 80.7917 52.5233C80.66 52.5233 80.5284 52.5296 80.3967 52.5359C80.1458 52.5359 79.9013 52.5421 79.6505 52.5421C79.3996 52.5421 79.1488 52.5421 78.9042 52.5359C78.7726 52.5359 78.6409 52.5296 78.5092 52.5233C78.4026 52.5233 78.3023 52.5233 78.2019 52.5108C78.0075 52.5045 77.8257 52.492 77.6376 52.4857C77.6125 52.4857 77.5811 52.4857 77.5498 52.4857C70.0626 52.0028 65.1338 48.8487 61.7477 42.4338C61.7414 42.4212 61.7351 42.4024 61.7351 42.3899C59.4463 38.0192 57.8974 32.0433 57.0572 24.3303C57.0572 24.3115 57.0509 24.2864 57.0446 24.2613C56.8252 22.2296 56.6559 20.0412 56.5304 17.7398C56.5242 17.5454 56.5116 17.351 56.5054 17.1629C56.4928 16.9121 56.4803 16.6675 56.474 16.423C56.4552 16.0718 56.4426 15.7144 56.4301 15.3632C56.4301 15.2629 56.4176 15.1563 56.4176 15.0497C56.405 14.5857 56.3862 14.1154 56.3737 13.6325C56.3549 12.8612 56.9568 12.2154 57.7281 12.1903C65.5853 11.9269 72.9095 9.83249 78.9168 6.12652C79.1425 5.98856 79.3996 5.91958 79.6567 5.91958C79.9138 5.91958 80.1709 5.98856 80.3904 6.12652C86.3977 9.83249 93.7219 11.9269 101.579 12.1903C102.35 12.2154 102.952 12.8612 102.934 13.6325C102.921 14.1091 102.902 14.5794 102.89 15.0497Z" fill="black"/>
<path id="Vector_6" d="M22.5682 72.2134C22.3425 70.9404 17.7962 69.216 12.9302 69.216C12.4536 69.216 11.9707 69.2348 11.4879 69.2661C11.0615 69.2975 10.5097 69.4041 10.2777 69.7239C10.0456 70.05 10.0331 70.7209 10.24 71.5173C10.7354 73.386 12.1777 74.6276 13.7516 74.5335C19.2447 74.2074 21.8972 73.1979 22.4929 72.4454C22.587 72.3325 22.5807 72.2823 22.5619 72.2134H22.5682ZM79.5938 69.7239C79.3618 69.4041 78.81 69.2975 78.3836 69.2661C73.0159 68.8711 67.5541 70.815 67.3033 72.2134C67.2907 72.2823 67.2844 72.3262 67.3722 72.4454C67.9742 73.2041 70.6142 74.2074 76.1136 74.5335C77.6812 74.6276 79.136 73.386 79.6252 71.5173C79.8321 70.7209 79.8195 70.05 79.5875 69.7239H79.5938ZM79.5938 69.7239C79.3618 69.4041 78.81 69.2975 78.3836 69.2661C73.0159 68.8711 67.5541 70.815 67.3033 72.2134C67.2907 72.2823 67.2844 72.3262 67.3722 72.4454C67.9742 73.2041 70.6142 74.2074 76.1136 74.5335C77.6812 74.6276 79.136 73.386 79.6252 71.5173C79.8321 70.7209 79.8195 70.05 79.5875 69.7239H79.5938ZM22.5682 72.2134C22.3425 70.9404 17.7962 69.216 12.9302 69.216C12.4536 69.216 11.9707 69.2348 11.4879 69.2661C11.0615 69.2975 10.5097 69.4041 10.2777 69.7239C10.0456 70.05 10.0331 70.7209 10.24 71.5173C10.7354 73.386 12.1777 74.6276 13.7516 74.5335C19.2447 74.2074 21.8972 73.1979 22.4929 72.4454C22.587 72.3325 22.5807 72.2823 22.5619 72.2134H22.5682ZM22.5682 72.2134C22.3425 70.9404 17.7962 69.216 12.9302 69.216C12.4536 69.216 11.9707 69.2348 11.4879 69.2661C11.0615 69.2975 10.5097 69.4041 10.2777 69.7239C10.0456 70.05 10.0331 70.7209 10.24 71.5173C10.7354 73.386 12.1777 74.6276 13.7516 74.5335C19.2447 74.2074 21.8972 73.1979 22.4929 72.4454C22.587 72.3325 22.5807 72.2823 22.5619 72.2134H22.5682ZM79.5938 69.7239C79.3618 69.4041 78.81 69.2975 78.3836 69.2661C73.0159 68.8711 67.5541 70.815 67.3033 72.2134C67.2907 72.2823 67.2844 72.3262 67.3722 72.4454C67.9742 73.2041 70.6142 74.2074 76.1136 74.5335C77.6812 74.6276 79.136 73.386 79.6252 71.5173C79.8321 70.7209 79.8195 70.05 79.5875 69.7239H79.5938ZM79.5938 69.7239C79.3618 69.4041 78.81 69.2975 78.3836 69.2661C73.0159 68.8711 67.5541 70.815 67.3033 72.2134C67.2907 72.2823 67.2844 72.3262 67.3722 72.4454C67.9742 73.2041 70.6142 74.2074 76.1136 74.5335C77.6812 74.6276 79.136 73.386 79.6252 71.5173C79.8321 70.7209 79.8195 70.05 79.5875 69.7239H79.5938ZM22.5682 72.2134C22.3425 70.9404 17.7962 69.216 12.9302 69.216C12.4536 69.216 11.9707 69.2348 11.4879 69.2661C11.0615 69.2975 10.5097 69.4041 10.2777 69.7239C10.0456 70.05 10.0331 70.7209 10.24 71.5173C10.7354 73.386 12.1777 74.6276 13.7516 74.5335C19.2447 74.2074 21.8972 73.1979 22.4929 72.4454C22.587 72.3325 22.5807 72.2823 22.5619 72.2134H22.5682ZM85.8143 64.6572C85.8143 64.6572 85.7955 64.607 85.7767 64.5819L85.7642 64.5631L85.7516 64.5443C85.2688 63.8545 84.7232 63.2337 84.14 62.7007L80.9796 59.8225C80.9232 59.7723 80.873 59.7159 80.8354 59.6594L80.6535 59.3647H80.3149C80.0955 59.371 79.876 59.3773 79.6502 59.3773C75.035 59.3773 70.9465 58.5997 67.4851 57.0571L67.366 57.0069H67.2656C63.6286 56.6432 59.9415 56.3673 56.3233 56.1792L55.621 56.1479C54.8936 56.1102 54.1599 56.0789 53.4325 56.0475H53.1754C50.4978 55.9409 47.8328 55.8845 45.243 55.8845H44.572C42.3898 55.8845 40.1575 55.9221 37.9376 55.9911L37.4485 56.0036C36.4954 56.035 35.536 56.0789 34.5766 56.1228L33.9746 56.1479C28.1867 56.4363 22.2923 56.9568 16.4543 57.6905C16.4167 57.6905 16.379 57.6905 16.3414 57.6905C16.1031 57.6905 15.8711 57.5964 15.7018 57.4271C15.5011 57.2264 15.4071 56.9568 15.4384 56.6746C16.2912 49.2062 18.7055 43.9012 22.0164 37.2355C22.1543 36.9533 22.424 36.7652 22.7375 36.7338C29.3656 36.019 36.3261 35.5988 42.8727 35.511H42.9417C43.6001 35.4985 44.2585 35.4985 44.9044 35.4922H45.0047C45.5816 35.4922 46.1711 35.4922 46.7605 35.5048H46.98H47.0301C48.5351 35.5236 50.015 35.5612 51.4322 35.6051L52.2285 35.6302L52.0467 34.8526C51.846 34.0186 51.6579 33.1344 51.4823 32.244L51.3883 31.7674L50.8991 31.7549C48.9803 31.6922 46.9862 31.6608 44.9859 31.6546H44.9295C37.737 31.6546 30.1996 32.081 22.5243 32.9087C21.9725 32.9651 21.4207 33.1909 20.9378 33.5609C20.4362 33.9371 20.0098 34.4764 19.6899 35.1097C17.7962 38.9286 16.3916 41.9385 15.244 45.1177C14.2909 47.7702 13.5948 50.3475 13.1245 53L13.1057 53.0501V53.069C13.1057 53.069 13.0681 53.2006 13.0618 53.2132C13.0556 53.2257 13.0242 53.2884 13.0242 53.2884C13.0117 53.3135 12.9991 53.3386 12.9866 53.3637C12.9803 53.3762 12.9364 53.4327 12.9364 53.4327C12.9176 53.4515 12.8988 53.4765 12.88 53.4954L12.8424 53.533C12.8424 53.533 12.8236 53.5518 12.811 53.5643C12.7985 53.5769 12.7671 53.5957 12.7295 53.6208L12.6731 53.6647C12.6731 53.6647 12.6229 53.6898 12.5915 53.7023H12.5665L12.51 53.7337C12.4285 53.7587 12.3407 53.7775 12.2529 53.7838H12.14C12.14 53.7838 12.1024 53.7838 12.0711 53.7713H12.0585C12.0334 53.7713 12.0146 53.7587 11.9958 53.7525L11.9519 53.7399C11.9519 53.7399 11.9018 53.7274 11.8767 53.7211C11.8579 53.7086 11.7826 53.6772 11.7826 53.6772C11.7575 53.6647 11.7325 53.6521 11.7074 53.6396C11.6886 53.627 11.6697 53.6082 11.6509 53.5957C11.6196 53.5769 11.582 53.5455 11.5506 53.5079L11.5192 53.4765H11.513L9.88887 51.7709C9.09876 50.9432 8.09545 50.4854 7.07333 50.4854H1.18516C0.54555 50.4854 0 51.2379 0 52.1284V52.7492C0 54.7809 1.28549 56.4363 2.8657 56.4363H6.02613C6.7159 56.4363 7.36805 56.7373 7.86344 57.2829L8.81658 58.3363V58.4367L9.02979 58.5746C9.1552 58.7314 9.22418 58.9446 9.21791 59.1703C9.20537 59.4149 9.10503 59.6406 8.91691 59.8037L5.75649 62.6819C5.17332 63.2149 4.62777 63.8357 4.14492 64.5255L4.13238 64.5443L4.11984 64.5694C4.11984 64.5694 4.08849 64.6196 4.07594 64.6509C2.55844 66.8645 1.72444 69.6925 1.72444 72.5959V78.6032C1.72444 81.7573 3.75614 84.3158 6.2456 84.3158H83.6509C86.1404 84.3158 88.1721 81.7511 88.1721 78.6032V72.5959C88.1721 69.6925 87.3381 66.8645 85.8143 64.6446V64.6572ZM24.8883 74.3266C23.4649 76.1263 19.784 77.2174 13.9397 77.5685C13.8206 77.5685 13.7014 77.5748 13.5886 77.5748C10.6915 77.5748 8.13308 75.449 7.30535 72.2886C6.84759 70.5516 7.02317 69.0529 7.807 67.9493C8.31493 67.2407 9.32451 66.3691 11.2684 66.2249C16.6424 65.8235 24.8256 67.5417 25.5656 71.6678C25.7349 72.6272 25.5029 73.5427 24.8883 74.3203V74.3266ZM55.4078 75.982H34.47C33.6297 75.982 32.9462 75.2985 32.9462 74.4583C32.9462 73.618 33.6234 72.9345 34.47 72.9345H55.4078C56.248 72.9345 56.9315 73.6117 56.9315 74.4583C56.9315 75.3048 56.248 75.982 55.4078 75.982ZM58.2547 69.2222H31.6168C30.7765 69.2222 30.093 68.5387 30.093 67.6985C30.093 66.8582 30.7702 66.1747 31.6168 66.1747H58.2547C59.0949 66.1747 59.7784 66.8519 59.7784 67.6985C59.7784 68.545 59.0949 69.2222 58.2547 69.2222ZM82.5724 72.2949C81.7384 75.4553 79.1862 77.5811 76.2892 77.5811C76.17 77.5811 76.0509 77.5811 75.9317 77.5748C70.0874 77.2236 66.4065 76.1325 64.9894 74.3328C64.3748 73.5553 64.1428 72.6398 64.3121 71.6803C65.0521 67.5542 73.2353 65.8361 78.6093 66.2374C80.5595 66.3816 81.5691 67.2532 82.0707 67.9618C82.8608 69.0655 83.0301 70.5642 82.5786 72.3012L82.5724 72.2949ZM78.3836 69.2661C73.0159 68.8711 67.5541 70.815 67.3033 72.2134C67.2907 72.2823 67.2844 72.3262 67.3722 72.4454C67.9742 73.2041 70.6142 74.2074 76.1136 74.5335C77.6812 74.6276 79.136 73.386 79.6252 71.5173C79.8321 70.7209 79.8195 70.05 79.5875 69.7239C79.3555 69.4041 78.8037 69.2975 78.3773 69.2661H78.3836ZM12.9302 69.216C12.4536 69.216 11.9707 69.2348 11.4879 69.2661C11.0615 69.2975 10.5097 69.4041 10.2777 69.7239C10.0456 70.05 10.0331 70.7209 10.24 71.5173C10.7354 73.386 12.1777 74.6276 13.7516 74.5335C19.2447 74.2074 21.8972 73.1979 22.4929 72.4454C22.587 72.3325 22.5807 72.2823 22.5619 72.2134C22.3362 70.9404 17.7899 69.216 12.9239 69.216H12.9302ZM22.5682 72.2134C22.3425 70.9404 17.7962 69.216 12.9302 69.216C12.4536 69.216 11.9707 69.2348 11.4879 69.2661C11.0615 69.2975 10.5097 69.4041 10.2777 69.7239C10.0456 70.05 10.0331 70.7209 10.24 71.5173C10.7354 73.386 12.1777 74.6276 13.7516 74.5335C19.2447 74.2074 21.8972 73.1979 22.4929 72.4454C22.587 72.3325 22.5807 72.2823 22.5619 72.2134H22.5682ZM79.5938 69.7239C79.3618 69.4041 78.81 69.2975 78.3836 69.2661C73.0159 68.8711 67.5541 70.815 67.3033 72.2134C67.2907 72.2823 67.2844 72.3262 67.3722 72.4454C67.9742 73.2041 70.6142 74.2074 76.1136 74.5335C77.6812 74.6276 79.136 73.386 79.6252 71.5173C79.8321 70.7209 79.8195 70.05 79.5875 69.7239H79.5938ZM79.5938 69.7239C79.3618 69.4041 78.81 69.2975 78.3836 69.2661C73.0159 68.8711 67.5541 70.815 67.3033 72.2134C67.2907 72.2823 67.2844 72.3262 67.3722 72.4454C67.9742 73.2041 70.6142 74.2074 76.1136 74.5335C77.6812 74.6276 79.136 73.386 79.6252 71.5173C79.8321 70.7209 79.8195 70.05 79.5875 69.7239H79.5938ZM22.5682 72.2134C22.3425 70.9404 17.7962 69.216 12.9302 69.216C12.4536 69.216 11.9707 69.2348 11.4879 69.2661C11.0615 69.2975 10.5097 69.4041 10.2777 69.7239C10.0456 70.05 10.0331 70.7209 10.24 71.5173C10.7354 73.386 12.1777 74.6276 13.7516 74.5335C19.2447 74.2074 21.8972 73.1979 22.4929 72.4454C22.587 72.3325 22.5807 72.2823 22.5619 72.2134H22.5682ZM22.5682 72.2134C22.3425 70.9404 17.7962 69.216 12.9302 69.216C12.4536 69.216 11.9707 69.2348 11.4879 69.2661C11.0615 69.2975 10.5097 69.4041 10.2777 69.7239C10.0456 70.05 10.0331 70.7209 10.24 71.5173C10.7354 73.386 12.1777 74.6276 13.7516 74.5335C19.2447 74.2074 21.8972 73.1979 22.4929 72.4454C22.587 72.3325 22.5807 72.2823 22.5619 72.2134H22.5682ZM22.5682 72.2134C22.3425 70.9404 17.7962 69.216 12.9302 69.216C12.4536 69.216 11.9707 69.2348 11.4879 69.2661C11.0615 69.2975 10.5097 69.4041 10.2777 69.7239C10.0456 70.05 10.0331 70.7209 10.24 71.5173C10.7354 73.386 12.1777 74.6276 13.7516 74.5335C19.2447 74.2074 21.8972 73.1979 22.4929 72.4454C22.587 72.3325 22.5807 72.2823 22.5619 72.2134H22.5682Z" fill="black"/>
</g>
<defs>
<clipPath id="clip0_99_313">
<rect width="108" height="94.6434" fill="white"/>
</clipPath>
</defs>
</svg>
